<?xml version="1.0" encoding="utf-8"?>
<!-- Generator: Adobe Illustrator 23.1.0, SVG Export Plug-In . SVG Version: 6.00 Build 0)  -->
<svg version="1.1" id="Слой_1" xmlns="http://www.w3.org/2000/svg" xmlns:xlink="http://www.w3.org/1999/xlink" x="0px" y="0px"
	 viewBox="0 0 492.97 467" style="enable-background:new 0 0 492.97 467;" xml:space="preserve">
<style type="text/css">
	.st0{fill-rule:evenodd;clip-rule:evenodd;fill:#81B5E2;}
</style>
<path class="st0" d="M479.94,239.44h-63.35c-4.92,0-8.91-3.99-8.91-8.91s3.99-8.91,8.91-8.91h63.35c4.92,0,8.91,3.99,8.91,8.91
	S484.85,239.44,479.94,239.44z M430.66,73.95l-54.86,31.67c-4.26,2.46-9.71,1-12.17-3.26c-2.46-4.26-1-9.71,3.26-12.17l54.86-31.67
	c4.26-2.46,9.71-1,12.17,3.26C436.38,66.04,434.92,71.49,430.66,73.95z M340.76,312.48l-0.44-0.27c-1.87,1.53-4.27,2.45-6.87,2.45
	c-6.01,0-10.89-4.87-10.89-10.89c0-0.79,0.09-1.55,0.25-2.29l-0.34-0.21c0.21-0.28,0.42-0.57,0.63-0.86
	c0.67-2.08,1.95-3.87,3.63-5.19c12.63-19.12,19.98-42.04,19.98-66.67c0-24.51-7.29-47.31-19.8-66.38c-1.09-1.04-1.96-2.31-2.55-3.73
	c-0.13-0.19-0.26-0.38-0.4-0.57l0.16-0.1c-0.37-1.09-0.57-2.25-0.57-3.47c0-6.01,4.87-10.89,10.89-10.89c3.05,0,5.8,1.25,7.77,3.27
	l0.03-0.02c0.05,0.07,0.09,0.13,0.14,0.2c0.77,0.82,1.41,1.75,1.89,2.78c15.05,22.59,23.82,49.72,23.82,78.89
	C368.09,259.94,357.94,288.94,340.76,312.48z M109.76,310.71v64.34c0,4.92-3.99,8.91-8.91,8.91s-8.91-3.99-8.91-8.91v-64.34H46.41
	c-22.96,0-41.57-18.61-41.57-41.57v-71.26c0-22.96,18.61-41.57,41.57-41.57h112.77l115.87-66.9v286.22l-112.44-64.92H109.76z
	 M257.24,344.77v-224.5l-93.28,53.86H51.36c-15.85,0-28.7,12.85-28.7,28.7v61.37c0,15.85,12.85,28.7,28.7,28.7h116.02L257.24,344.77
	z M375.8,362.38l54.86,31.67c4.26,2.46,5.72,7.91,3.26,12.17c-2.46,4.26-7.91,5.72-12.17,3.26l-54.86-31.67
	c-4.26-2.46-5.72-7.91-3.26-12.17C366.09,361.38,371.54,359.92,375.8,362.38z"/>
</svg>
