<svg xmlns="http://www.w3.org/2000/svg" width="39.344" height="49.69" viewBox="0 0 39.344 49.69">
  <defs>
    <style>
      .cls-1 {
        fill: #7ab7f4;
        fill-rule: evenodd;
      }
    </style>
  </defs>
  <path id="icon_02" data-name="icon 02" class="cls-1" d="M891.04,1752.3H877.48a2.4,2.4,0,0,1-2.4-2.4v-24a2.4,2.4,0,0,1,2.4-2.4h13.56a2.4,2.4,0,0,1,2.4,2.4v24A2.4,2.4,0,0,1,891.04,1752.3Zm0.24-25.62a1.02,1.02,0,0,0-1.017-1.02H878.256a1.02,1.02,0,0,0-1.016,1.02v22.44a1.02,1.02,0,0,0,1.016,1.02h12.007a1.02,1.02,0,0,0,1.017-1.02v-22.44Zm-0.24-6.06H877.48a2.4,2.4,0,0,1-2.4-2.4v-13.2a2.4,2.4,0,0,1,2.4-2.4h13.56a2.4,2.4,0,0,1,2.4,2.4v13.2A2.4,2.4,0,0,1,891.04,1720.62Zm0.24-14.82a1.02,1.02,0,0,0-1.017-1.02H878.256a1.02,1.02,0,0,0-1.016,1.02v11.64a1.02,1.02,0,0,0,1.016,1.02h12.007a1.02,1.02,0,0,0,1.017-1.02V1705.8Zm-21.24,46.5H856.48a2.4,2.4,0,0,1-2.4-2.4v-13.2a2.4,2.4,0,0,1,2.4-2.4h13.56a2.4,2.4,0,0,1,2.4,2.4v13.2A2.4,2.4,0,0,1,870.04,1752.3Zm0.24-14.82a1.02,1.02,0,0,0-1.017-1.02H857.256a1.02,1.02,0,0,0-1.016,1.02v11.64a1.02,1.02,0,0,0,1.016,1.02h12.007a1.02,1.02,0,0,0,1.017-1.02v-11.64Zm-0.24-6.06H856.48a2.4,2.4,0,0,1-2.4-2.4v-24a2.4,2.4,0,0,1,2.4-2.4h13.56a2.4,2.4,0,0,1,2.4,2.4v24A2.4,2.4,0,0,1,870.04,1731.42Zm0.24-25.62a1.02,1.02,0,0,0-1.017-1.02H857.256a1.02,1.02,0,0,0-1.016,1.02v22.44a1.02,1.02,0,0,0,1.016,1.02h12.007a1.02,1.02,0,0,0,1.017-1.02V1705.8Z" transform="translate(-854.094 -1702.62)"/>
</svg>
