<svg xmlns="http://www.w3.org/2000/svg" width="39.344" height="49.69" viewBox="0 0 39.344 49.69">
  <defs>
    <style>
      .cls-1 {
        fill: #7ab7f4;
        fill-rule: evenodd;
      }
    </style>
  </defs>
  <path id="icon_04" data-name="icon 04" class="cls-1" d="M500.04,2028.3H465.48a2.4,2.4,0,0,1-2.4-2.4v-44.88a2.4,2.4,0,0,1,2.4-2.4h34.56a2.4,2.4,0,0,1,2.4,2.4v44.88A2.4,2.4,0,0,1,500.04,2028.3Zm0.24-46.5a1.02,1.02,0,0,0-1.017-1.02H466.256a1.02,1.02,0,0,0-1.016,1.02v43.32a1.02,1.02,0,0,0,1.016,1.02h33.007a1.02,1.02,0,0,0,1.017-1.02V1981.8Zm-7.56,37.5h-20.4a1.08,1.08,0,0,1,0-2.16h20.4A1.08,1.08,0,1,1,492.72,2019.3Zm0-7.32h-20.4a1.08,1.08,0,0,1,0-2.16h20.4A1.08,1.08,0,0,1,492.72,2011.98Zm-9.715-15.54a5.136,5.136,0,0,1-2.437,1c-0.224.04-.457,0.06-0.7,0.08s-0.449.02-.623,0.02h-4.873v1.72h2.145a1.08,1.08,0,0,1,0,2.16h-2.145v0.35H474.36v1.81a1.08,1.08,0,0,1-2.16,0l0-2.16H470.52a1.08,1.08,0,1,1,0-2.16h1.669l0-1.8H470.52a1.08,1.08,0,0,1,0-2.16h1.659l-0.022-9.07h7.091c0.174,0,.382,0,0.623.02a6.16,6.16,0,0,1,3.146,1.08,4.732,4.732,0,0,1,1.489,1.95,6.6,6.6,0,0,1,.5,2.61,6.5,6.5,0,0,1-.5,2.59A4.895,4.895,0,0,1,483.005,1996.44Zm-0.518-6.02a3.217,3.217,0,0,0-.791-1.25,2.723,2.723,0,0,0-1.4-.72,3.5,3.5,0,0,0-.579-0.1c-0.2-.01-0.385-0.02-0.542-0.02h-4.8v7.11h4.8c0.157,0,.338-0.01.542-0.03a2.694,2.694,0,0,0,.579-0.09,2.88,2.88,0,0,0,1.4-.72,3.217,3.217,0,0,0,.791-1.25A4.417,4.417,0,0,0,482.487,1990.42Z" transform="translate(-463.094 -1978.62)"/>
</svg>
