<svg xmlns="http://www.w3.org/2000/svg" width="49.813" height="50.12" viewBox="0 0 49.813 50.12">
  <defs>
    <style>
      .cls-1 {
        fill: #7ab7f4;
        fill-rule: evenodd;
      }
    </style>
  </defs>
  <path id="icon_05" data-name="icon 05" class="cls-1" d="M898.659,2028.33H857.778a4.468,4.468,0,0,1-4.468-4.47v-25.13a4.468,4.468,0,0,1,4.468-4.47h14.856v-9.94l11.616-6.14h12.4v9.27h-12.4v6.81h14.409a4.468,4.468,0,0,1,4.468,4.47v25.13A4.468,4.468,0,0,1,898.659,2028.33Zm-16.308-47.03-7.819,4.25v6.14h7.819V1981.3Zm0,12.29h-7.819v4.24h7.819v-4.24Zm12.4-8.15v-5.25h-10.5v5.25h10.5Zm6.367,13.06a2.234,2.234,0,0,0-2.234-2.23H884.25v3.46H872.634v-3.46h-15.08a2.234,2.234,0,0,0-2.234,2.23v25.58a2.236,2.236,0,0,0,2.234,2.24h41.329a2.236,2.236,0,0,0,2.234-2.24V1998.5Zm-5.474,13.63H879.894a1.005,1.005,0,1,1,0-2.01h15.749A1.005,1.005,0,1,1,895.643,2012.13Zm0-4.69H879.894a1.005,1.005,0,1,1,0-2.01h15.749A1.005,1.005,0,1,1,895.643,2007.44Zm-24.908,12.4a1.006,1.006,0,0,1,1-1.01h2.569v-3.24c0-.76-4.277-1.38-5.189-2.8a3.722,3.722,0,0,1-.956.11,3.527,3.527,0,0,1-1.039-.15c-0.857,1.45-5.214,2.07-5.214,2.84v3.24h6.366a1.005,1.005,0,1,1,0,2.01h-8.265v-5.47c0-2.27,4.755-2.76,5.487-3.58a6.39,6.39,0,0,1-1.854-4.41v-1.51a4.355,4.355,0,0,1,4.519-4.24,4.446,4.446,0,0,1,4.519,4.32v1.5a6.265,6.265,0,0,1-1.887,4.41c0.936,0.78,5.412,1.31,5.412,3.51v5.47H871.74A1,1,0,0,1,870.735,2019.84Zm0-13.51a2.579,2.579,0,1,0-5.139,0v0.98c0,1.55.948,3.59,2.57,3.59s2.569-2.04,2.569-3.59v-0.98Zm0.558,9.15a1.005,1.005,0,1,1-1,1.01A1.007,1.007,0,0,1,871.293,2015.48Zm8.6-.78h12.845a1.005,1.005,0,1,1,0,2.01H879.894A1.005,1.005,0,1,1,879.894,2014.7Z" transform="translate(-853.312 -1978.19)"/>
</svg>
