<svg xmlns="http://www.w3.org/2000/svg" width="38.88" height="39.59" viewBox="0 0 38.88 39.59">
  <defs>
    <style>
      .cls-1 {
        fill: #7ab7f4;
        fill-rule: evenodd;
      }
    </style>
  </defs>
  <path id="icon_06" data-name="icon 06" class="cls-1" d="M1277.68,2027.5h-28.8a5.045,5.045,0,0,1-5.04-5.04v-7.44a5.045,5.045,0,0,1,5.04-5.04h28.8a5.045,5.045,0,0,1,5.04,5.04v7.44A5.045,5.045,0,0,1,1277.68,2027.5Zm2.88-11.88a3.483,3.483,0,0,0-3.48-3.48h-27.6a3.483,3.483,0,0,0-3.48,3.48v6.24a3.483,3.483,0,0,0,3.48,3.48h27.6a3.483,3.483,0,0,0,3.48-3.48v-6.24Zm-27.96,7.08a3.96,3.96,0,1,1,3.96-3.96A3.956,3.956,0,0,1,1252.6,2022.7Zm0-5.74a1.78,1.78,0,1,0,1.78,1.78A1.784,1.784,0,0,0,1252.6,2016.96Zm25.08-11.54h-28.8a5.045,5.045,0,0,1-5.04-5.04v-7.44a5.045,5.045,0,0,1,5.04-5.04h28.8a5.045,5.045,0,0,1,5.04,5.04v7.44A5.045,5.045,0,0,1,1277.68,2005.42Zm2.88-11.88a3.483,3.483,0,0,0-3.48-3.48h-27.6a3.483,3.483,0,0,0-3.48,3.48v6.24a3.483,3.483,0,0,0,3.48,3.48h27.6a3.483,3.483,0,0,0,3.48-3.48v-6.24Zm-27.96,7.08a3.96,3.96,0,1,1,3.96-3.96A3.956,3.956,0,0,1,1252.6,2000.62Zm0-5.74a1.78,1.78,0,1,0,1.78,1.78A1.784,1.784,0,0,0,1252.6,1994.88Z" transform="translate(-1243.84 -1987.91)"/>
</svg>
