<svg xmlns="http://www.w3.org/2000/svg" width="39.813" height="38.78" viewBox="0 0 39.813 38.78">
  <defs>
    <style>
      .cls-1 {
        fill: #7ab7f4;
        fill-rule: evenodd;
      }
    </style>
  </defs>
  <path id="icon_07" data-name="icon 07" class="cls-1" d="M500.44,2309.02H466.12a2.763,2.763,0,0,1-2.76-2.76v-33.24a2.763,2.763,0,0,1,2.76-2.76h34.32a2.763,2.763,0,0,1,2.76,2.76v33.24A2.763,2.763,0,0,1,500.44,2309.02Zm0.57-35.91a0.718,0.718,0,0,0-.72-0.72h-5.01v3.75a1.08,1.08,0,0,1-2.16,0v-3.75H488.2v3.75a1.08,1.08,0,0,1-2.16,0v-3.75h-5.52v3.75a1.08,1.08,0,0,1-2.16,0v-3.75h-4.92v3.75a1.08,1.08,0,1,1-2.16,0v-3.75h-5.01a0.718,0.718,0,0,0-.72.72v6.51h35.46v-6.51Zm0,8.67H465.55v24.39a0.718,0.718,0,0,0,.72.72h34.02a0.718,0.718,0,0,0,.72-0.72v-24.39Zm-10.034,20.08a5.714,5.714,0,0,1-2.9.77,5.553,5.553,0,0,1-2.434-.54,5.711,5.711,0,0,1-3.058-3.68l2.015-.54a3.418,3.418,0,0,0,.755,1.45,4,4,0,0,0,1.266.94,3.618,3.618,0,0,0,1.515.33,3.493,3.493,0,0,0,1.868-.5,3.636,3.636,0,0,0,1.314-1.33,3.687,3.687,0,0,0-.018-3.68,3.7,3.7,0,0,0-1.338-1.31,3.605,3.605,0,0,0-1.826-.48,3.728,3.728,0,0,0-1.915.46,3.8,3.8,0,0,0-1.255,1.14l-1.862-.71,0.518-8.87h9.11v1.99h-7.219l-0.316,5.15a5.181,5.181,0,0,1,1.165-.68,5.074,5.074,0,0,1,2.009-.42,5.432,5.432,0,0,1,4.809,2.74,5.629,5.629,0,0,1,.73,2.85,5.306,5.306,0,0,1-.8,2.86A6,6,0,0,1,490.976,2301.86Zm-15.126-14.23-3.194,1.93v-2.34l3.194-1.91h2.133v16.97H475.85v-14.65Z" transform="translate(-463.375 -2270.25)"/>
</svg>
