<?xml version="1.0" encoding="utf-8"?>
<!-- Generator: Adobe Illustrator 23.1.0, SVG Export Plug-In . SVG Version: 6.00 Build 0)  -->
<svg version="1.1" id="Слой_1" xmlns="http://www.w3.org/2000/svg" xmlns:xlink="http://www.w3.org/1999/xlink" x="0px" y="0px"
	 viewBox="0 0 492.97 467" style="enable-background:new 0 0 492.97 467;" xml:space="preserve">
<style type="text/css">
	.st0{fill-rule:evenodd;clip-rule:evenodd;fill:#5B6AB1;}
</style>
<path class="st0" d="M448.85,463c-4.83,0-8.74-3.89-8.74-8.69c0-4.8,3.91-8.69,8.74-8.69h22.33c0,0,0-23.5,0-28
	c0-6.61-45.1-9.76-45.1-24.26c-2.63,0.67-5.39,1.03-8.31,1.01c-3.18-0.03-6.19-0.5-9.03-1.35c0,15.28-45.32,17.92-45.32,24.6
	c0,4.51,0,28,0,28h55.34c4.83,0,8.74,3.89,8.74,8.69c0,4.8-3.91,8.69-8.74,8.69h-71.84c0,0,0-38.63,0-47.32
	c0-19.61,41.34-23.86,47.7-30.99c-10.4-9.78-16.12-25.26-16.12-38.11v-13c0-20.46,17.59-36.91,39.28-36.73
	c21.69,0.18,39.28,16.91,39.28,37.37v13c0,12.97-5.83,28.5-16.4,38.1c8.13,6.76,47.04,11.33,47.04,30.35c0,8.69,0,47.32,0,47.32
	H448.85z M440.12,337.54c0-13.38-10-24.22-22.33-24.22c-12.34,0-22.33,10.85-22.33,24.22v8.5c0,13.38,8.24,31.02,22.33,31.02
	c14.09,0,22.33-17.65,22.33-31.02V337.54z M272.13,246.57h-50.59v-77.61H111.57V30.14h109.97V5h50.59v25.14h109.97v138.82H272.13
	V246.57z M239.14,229.08h15.4v-60.12h-15.4V229.08z M254.54,22.49h-15.4v7.65h15.4V22.49z M364.51,151.47V47.63H129.17v103.84
	H364.51z M213.3,58.56c4.55,0,8.25,3.67,8.25,8.2v38.26c0,4.53-3.69,8.2-8.25,8.2c-4.56,0-8.25-3.67-8.25-8.2V66.76
	C205.05,62.23,208.74,58.56,213.3,58.56z M213.3,119.77c4.55,0,8.25,3.67,8.25,8.2v2.19c0,4.53-3.69,8.2-8.25,8.2
	c-4.56,0-8.25-3.67-8.25-8.2v-2.19C205.05,123.44,208.74,119.77,213.3,119.77z M247.39,58.56c4.56,0,8.25,3.67,8.25,8.2v38.26
	c0,4.53-3.69,8.2-8.25,8.2c-4.56,0-8.25-3.67-8.25-8.2V66.76C239.14,62.23,242.83,58.56,247.39,58.56z M247.39,119.77
	c4.56,0,8.25,3.67,8.25,8.2v2.19c0,4.53-3.69,8.2-8.25,8.2c-4.56,0-8.25-3.67-8.25-8.2v-2.19
	C239.14,123.44,242.83,119.77,247.39,119.77z M280.38,58.56c4.55,0,8.25,3.67,8.25,8.2v38.26c0,4.53-3.69,8.2-8.25,8.2
	c-4.56,0-8.25-3.67-8.25-8.2V66.76C272.13,62.23,275.83,58.56,280.38,58.56z M280.38,119.77c4.55,0,8.25,3.67,8.25,8.2v2.19
	c0,4.53-3.69,8.2-8.25,8.2c-4.56,0-8.25-3.67-8.25-8.2v-2.19C272.13,123.44,275.83,119.77,280.38,119.77z M344.71,116.49
	c6.07,0,11,4.89,11,10.93c0,6.04-4.92,10.93-11,10.93c-6.07,0-11-4.89-11-10.93C333.72,121.39,338.64,116.49,344.71,116.49z
	 M116.14,347.23c0,12.97-5.83,28.5-16.4,38.1c8.13,6.76,47.04,11.33,47.04,30.35c0,8.69,0,47.32,0,47.32h-38.83
	c-4.83,0-8.74-3.89-8.74-8.69c0-4.8,3.91-8.69,8.74-8.69h22.33c0,0,0-23.5,0-28c0-6.61-45.1-9.76-45.1-24.26
	c-2.62,0.67-5.39,1.03-8.31,1.01c-3.18-0.03-6.19-0.5-9.03-1.35c0,15.28-45.32,17.92-45.32,24.6c0,4.51,0,28,0,28h55.34
	c4.83,0,8.74,3.89,8.74,8.69c0,4.8-3.91,8.69-8.74,8.69H6c0,0,0-38.63,0-47.32c0-19.61,41.33-23.86,47.7-30.99
	c-10.4-9.78-16.12-25.26-16.12-38.11v-13c0-20.46,17.59-36.91,39.28-36.73c21.69,0.18,39.28,16.91,39.28,37.37V347.23z
	 M99.21,337.54c0-13.38-10-24.22-22.33-24.22s-22.33,10.85-22.33,24.22v8.5c0,13.38,8.24,31.02,22.33,31.02
	c14.09,0,22.33-17.65,22.33-31.02V337.54z M104.41,418.18c6.37,0,11.54,5.14,11.54,11.48c0,6.34-5.17,11.48-11.54,11.48
	S92.87,436,92.87,429.66C92.87,423.32,98.04,418.18,104.41,418.18z M129.17,362.98c0-3.92,3.2-7.1,7.15-7.1h22.54h22.54
	c3.95,0,7.15,3.18,7.15,7.1c0,3.92-3.2,7.11-7.15,7.11h-22.54h-22.54C132.37,370.08,129.17,366.9,129.17,362.98z M200.65,302
	c0,5.13-1.35,8.49-8.81,8.49c-10.61-4.5-24.43-20.11-24.43-23.5c-6.01,2.33-11.1,2.33-17.11,0c0,3.39-13.82,19.01-24.43,23.5
	c-7.46,0-8.81-3.36-8.81-8.49c0-5.13,19.1-14.79,19.1-23.33c-10.4-9.78-16.12-25.26-16.12-38.11v-13
	c0-20.31,17.33-36.66,38.81-36.72c21.48,0.07,38.81,16.41,38.81,36.72v13c0,12.85-5.72,28.33-16.12,38.11
	C181.55,287.22,200.65,296.87,200.65,302z M180.7,231.51c0-13.2-9.74-23.93-21.84-24.21c-12.11,0.28-21.84,11.01-21.84,24.21v8.5
	c0,13.22,8.06,30.57,21.84,30.99c13.79-0.41,21.84-17.77,21.84-30.99V231.51z M224.15,384.7c-10.4-9.78-16.12-25.26-16.12-38.11v-13
	c0-20.46,17.59-36.91,39.28-36.73c21.7,0.18,39.28,16.91,39.28,37.37v13c0,12.97-5.83,28.5-16.41,38.1
	c8.13,6.76,47.04,11.33,47.04,30.35c0,8.69,0,47.32,0,47.32H278.4c-4.83,0-8.74-3.89-8.74-8.69c0-4.8,3.91-8.69,8.74-8.69h22.33
	c0,0,0-23.5,0-28c0-6.61-45.1-9.76-45.1-24.26c-2.62,0.67-5.39,1.03-8.31,1.01c-3.18-0.03-6.19-0.5-9.03-1.35
	c0,15.28-45.32,17.92-45.32,24.6c0,4.51,0,28,0,28h55.34c4.83,0,8.74,3.89,8.74,8.69c0,4.8-3.91,8.69-8.74,8.69h-71.84
	c0,0,0-38.63,0-47.32C176.46,396.07,217.79,391.82,224.15,384.7z M224.99,346.04c0,13.38,8.24,31.02,22.34,31.02
	s22.34-17.65,22.34-31.02v-8.5c0-13.38-10-24.22-22.34-24.22c-12.34,0-22.34,10.85-22.34,24.22V346.04z M274.87,418.18
	c6.37,0,11.54,5.14,11.54,11.48c0,6.34-5.17,11.48-11.54,11.48c-6.37,0-11.54-5.14-11.54-11.48
	C263.33,423.32,268.5,418.18,274.87,418.18z M354.06,370.08h-22.54h-22.54c-3.95,0-7.15-3.18-7.15-7.11c0-3.92,3.2-7.1,7.15-7.1
	h22.54h22.54c3.95,0,7.15,3.18,7.15,7.1C361.21,366.9,358.01,370.08,354.06,370.08z M373.31,302c0,5.13-1.35,8.49-8.81,8.49
	c-10.61-4.5-24.43-20.11-24.43-23.5c-6.01,2.33-11.1,2.33-17.11,0c0,3.39-13.82,19.01-24.43,23.5c-7.46,0-8.81-3.36-8.81-8.49
	c0-5.13,19.1-14.79,19.1-23.33c-10.4-9.78-16.12-25.26-16.12-38.11v-13c0-20.31,17.33-36.66,38.81-36.72
	c21.48,0.07,38.81,16.41,38.81,36.72v13c0,12.85-5.72,28.33-16.12,38.11C354.2,287.22,373.31,296.87,373.31,302z M353.36,231.51
	c0-13.2-9.74-23.93-21.84-24.21c-12.11,0.28-21.84,11.01-21.84,24.21v8.5c0,13.22,8.06,30.57,21.84,30.99
	c13.79-0.41,21.84-17.77,21.84-30.99V231.51z M445.33,418.18c6.37,0,11.54,5.14,11.54,11.48c0,6.34-5.17,11.48-11.54,11.48
	c-6.37,0-11.54-5.14-11.54-11.48C433.79,423.32,438.95,418.18,445.33,418.18z"/>
</svg>
