<?xml version="1.0" encoding="utf-8"?>
<!-- Generator: Adobe Illustrator 23.1.0, SVG Export Plug-In . SVG Version: 6.00 Build 0)  -->
<svg version="1.1" id="Слой_1" xmlns="http://www.w3.org/2000/svg" xmlns:xlink="http://www.w3.org/1999/xlink" x="0px" y="0px"
	 viewBox="0 0 492.97 467" style="enable-background:new 0 0 492.97 467;" xml:space="preserve">
<style type="text/css">
	.st0{fill-rule:evenodd;clip-rule:evenodd;fill:#5B6AB1;}
</style>
<path class="st0" d="M432.7,462H60.99c-22.44,0-40.62-18.19-40.62-40.62V192.87c0-22.44,18.19-40.62,40.62-40.62h135.07V61.86
	L301.69,6h112.73v84.29H301.69v61.95H432.7c22.44,0,40.62,18.19,40.62,40.62v228.51C473.32,443.81,455.13,462,432.7,462z
	 M284.42,34.44l-71.09,38.59v55.86h71.09V34.44z M284.42,146.15h-71.09v38.59h71.09V146.15z M397.15,72.01V24.28h-95.47v47.73
	H397.15z M455.04,190.84c0-11.22-9.09-20.31-20.31-20.31H301.69v31.48H196.06v-31.48H58.96c-11.22,0-20.31,9.09-20.31,20.31v232.57
	c0,11.22,9.09,20.31,20.31,20.31h375.77c11.22,0,20.31-9.09,20.31-20.31V190.84z M405.28,314.74h-143.2c-5.05,0-9.14-4.09-9.14-9.14
	c0-5.05,4.09-9.14,9.14-9.14h143.2c5.05,0,9.14,4.09,9.14,9.14C414.42,310.65,410.32,314.74,405.28,314.74z M405.28,272.08h-143.2
	c-5.05,0-9.14-4.09-9.14-9.14c0-5.05,4.09-9.14,9.14-9.14h143.2c5.05,0,9.14,4.09,9.14,9.14
	C414.42,267.99,410.32,272.08,405.28,272.08z M178.8,384.82c0-5.05,4.09-9.14,9.14-9.14h23.36c0,0,0-24.71,0-29.45
	c0-6.96-38.89-12.57-47.18-25.52c-2.75,0.71-5.64,1.09-8.69,1.06c-3.33-0.03-6.48-0.53-9.45-1.41c-7.8,13.2-47.41,18.85-47.41,25.87
	c0,4.74,0,29.45,0,29.45h57.89c5.05,0,9.14,4.09,9.14,9.14c0,5.05-4.09,9.14-9.14,9.14H81.3c0,0,0-40.62,0-49.76
	c0-20.62,43.24-25.1,49.89-32.59c-10.88-10.29-16.86-26.56-16.86-40.08v-13.67c0-21.52,18.4-38.82,41.09-38.63
	c22.69,0.19,41.09,17.79,41.09,39.31v13.67c0,13.64-6.1,29.98-17.16,40.07c8.51,7.11,49.21,11.91,49.21,31.92
	c0,9.14,0,49.76,0,49.76h-40.62C182.89,393.96,178.8,389.86,178.8,384.82z M178.8,262.01c0-14.07-10.46-25.48-23.36-25.48
	c-12.9,0-23.36,11.41-23.36,25.48v8.94c0,14.07,8.62,32.63,23.36,32.63c14.74,0,23.36-18.56,23.36-32.63V262.01z M183.88,345.21
	c5.05,0,9.14,4.09,9.14,9.14c0,5.05-4.09,9.14-9.14,9.14s-9.14-4.09-9.14-9.14C174.74,349.3,178.83,345.21,183.88,345.21z
	 M262.08,338.1h116.79c5.05,0,9.14,4.09,9.14,9.14c0,5.05-4.09,9.14-9.14,9.14H262.08c-5.05,0-9.14-4.09-9.14-9.14
	C252.94,342.19,257.03,338.1,262.08,338.1z"/>
</svg>
