<?xml version="1.0" encoding="utf-8"?>
<!-- Generator: Adobe Illustrator 23.1.0, SVG Export Plug-In . SVG Version: 6.00 Build 0)  -->
<svg version="1.1" id="Слой_1" xmlns="http://www.w3.org/2000/svg" xmlns:xlink="http://www.w3.org/1999/xlink" x="0px" y="0px"
	 viewBox="0 0 492.97 467" style="enable-background:new 0 0 492.97 467;" xml:space="preserve">
<style type="text/css">
	.st0{fill-rule:evenodd;clip-rule:evenodd;fill:#5B6AB1;}
</style>
<path class="st0" d="M349.71,319.38h60.86c19.42,0,35.16,15.74,35.16,35.16v56.75c0,4.72-3.82,8.54-8.54,8.54
	c-4.72,0-8.54-3.82-8.54-8.54l-0.04-57.35c0-9.43-7.64-17.08-17.08-17.08h-70.71l-12.07,23.76h18.49v18.09H150.52v-18.09H170
	l11.93-23.76H86.17c-9.43,0-17.08,7.65-17.08,17.08l-0.04,72.42c0,4.72-3.82,8.54-8.54,8.54c-4.72,0-8.54-3.82-8.54-8.54v-71.82
	c0-19.42,15.74-35.16,35.16-35.16h67.89L44.95,125.52L97.18,8H394.5l54.24,116.52L349.71,319.38z M268.55,360.61h41.12
	l118.98-234.09h-40.72c-0.49,3.16-1.44,6.29-2.96,9.3c-3.9,7.71-10.57,13.1-18.19,15.56c2.53,7.6,2.14,16.16-1.76,23.87
	c-3.9,7.71-10.57,13.1-18.19,15.56c2.53,7.6,2.14,16.16-1.76,23.88c-3.9,7.71-10.57,13.1-18.19,15.56
	c2.53,7.6,2.14,16.16-1.76,23.87c-3.9,7.71-10.57,13.1-18.19,15.56c2.53,7.6,2.14,16.16-1.76,23.88
	c-3.9,7.71-10.57,13.1-18.19,15.56c2.53,7.6,2.14,16.16-1.76,23.88c-3.9,7.71-10.57,13.1-18.19,15.56
	C268.32,352.42,268.84,356.51,268.55,360.61z M250.66,360.61c0.82-4.86-1.09-9.86-5.1-12.88c-0.12-0.05-0.23-0.09-0.35-0.14
	l0.04-0.08l8.01-15.84l0.04-0.08c0.11,0.06,0.21,0.13,0.32,0.19c6.09,1.82,12.79-0.9,15.76-6.77c2.97-5.87,1.19-12.88-3.88-16.71
	c-0.12-0.05-0.23-0.09-0.35-0.14l0.04-0.08l8.01-15.84l0.04-0.08c0.11,0.06,0.21,0.13,0.32,0.19c6.09,1.82,12.79-0.9,15.76-6.77
	c2.97-5.87,1.19-12.88-3.88-16.71c-0.12-0.05-0.23-0.09-0.35-0.14l0.04-0.08l8.01-15.84l0.04-0.08c0.11,0.06,0.21,0.13,0.32,0.19
	c6.09,1.82,12.79-0.9,15.76-6.77c2.97-5.87,1.19-12.88-3.88-16.71c-0.12-0.05-0.23-0.09-0.35-0.14l0.04-0.08l8.01-15.84l0.04-0.08
	c0.11,0.06,0.21,0.13,0.32,0.19c6.09,1.82,12.79-0.9,15.76-6.77c2.97-5.87,1.19-12.88-3.88-16.71c-0.12-0.05-0.23-0.09-0.35-0.14
	l0.04-0.08l8.01-15.84l0.04-0.08c0.11,0.06,0.21,0.13,0.32,0.19c6.09,1.82,12.79-0.9,15.76-6.77c2.97-5.87,1.19-12.88-3.88-16.71
	c-0.12-0.05-0.23-0.09-0.35-0.14l0.04-0.08l8.01-15.84l0.04-0.08c0.11,0.06,0.21,0.13,0.32,0.19c6.09,1.82,12.79-0.9,15.76-6.77
	c0.21-0.42,0.32-0.86,0.49-1.29H307.6L190.08,360.61H250.66z M166.32,163.86c-5.07,3.83-6.85,10.84-3.88,16.71
	c2.97,5.87,9.67,8.59,15.76,6.77c0.11-0.06,0.21-0.13,0.32-0.19l0.04,0.08l8.01,15.84l0.04,0.08c-0.11,0.05-0.23,0.1-0.35,0.14
	c-5.07,3.83-6.85,10.84-3.88,16.71c2.97,5.87,9.67,8.59,15.76,6.77c0.11-0.06,0.21-0.13,0.32-0.19l0.04,0.08l8.01,15.84l0.04,0.08
	c-0.12,0.05-0.23,0.09-0.35,0.14c-5.07,3.83-6.85,10.84-3.88,16.71c2.84,5.62,9.1,8.3,14.97,6.94l24.12-48.04l-51.75-91.82h-45.44
	c-3.34,3.98-4.22,9.68-1.73,14.61c2.97,5.87,9.67,8.59,15.76,6.77c0.11-0.06,0.21-0.13,0.32-0.19l0.04,0.08l8.01,15.84l0.04,0.08
	C166.55,163.77,166.44,163.81,166.32,163.86z M250.7,199.84l36.8-73.31h-77.8L250.7,199.84z M174.58,319.38h16.11l12.46-24.82
	c-0.22-3.93,0.3-7.85,1.53-11.54c-7.62-2.47-14.29-7.85-18.19-15.56c-3.9-7.71-4.28-16.28-1.76-23.87
	c-7.62-2.47-14.29-7.85-18.19-15.56c-3.9-7.71-4.28-16.28-1.76-23.87c-7.62-2.47-14.29-7.85-18.19-15.56
	c-3.9-7.71-4.28-16.28-1.76-23.88c-7.62-2.47-14.29-7.85-18.19-15.56c-3.69-7.29-4.2-15.34-2.11-22.62h-58.5L174.58,319.38z
	 M382.44,25.08H109.23L95.27,57.66c5.26-4.05,11.84-6.47,18.99-6.47c8.64,0,16.46,3.52,22.1,9.21c5.64-5.69,13.46-9.21,22.1-9.21
	s16.46,3.52,22.1,9.21c5.64-5.69,13.46-9.21,22.1-9.21c8.64,0,16.46,3.52,22.1,9.21c5.64-5.69,13.46-9.21,22.1-9.21
	s16.46,3.52,22.1,9.21c5.64-5.69,13.46-9.21,22.1-9.21c8.64,0,16.46,3.52,22.1,9.21c5.64-5.69,13.46-9.21,22.1-9.21
	c8.64,0,16.46,3.52,22.1,9.21c5.64-5.69,13.46-9.21,22.1-9.21c6.85,0,13.16,2.24,18.3,5.98L382.44,25.08z M408.75,80.32h-16.1
	c-0.97-6.44-6.51-11.38-13.22-11.38c-6.58,0-12.03,4.75-13.16,11.01c0.01,0.12,0.02,0.25,0.03,0.37h-0.09h-17.75h-0.09
	c0.01-0.12,0.02-0.25,0.03-0.37c-1.13-6.26-6.58-11.01-13.16-11.01c-6.58,0-12.03,4.75-13.16,11.01c0.01,0.12,0.02,0.25,0.03,0.37
	h-0.09h-17.75h-0.09c0.01-0.12,0.02-0.25,0.03-0.37c-1.13-6.26-6.58-11.01-13.16-11.01s-12.03,4.75-13.16,11.01
	c0.01,0.12,0.02,0.25,0.03,0.37h-0.09h-17.75h-0.09c0.01-0.12,0.02-0.25,0.03-0.37c-1.13-6.26-6.58-11.01-13.16-11.01
	c-6.58,0-12.03,4.75-13.16,11.01c0.01,0.12,0.02,0.25,0.03,0.37h-0.09h-17.75h-0.09c0.01-0.12,0.02-0.25,0.03-0.37
	c-1.13-6.26-6.58-11.01-13.16-11.01s-12.03,4.75-13.16,11.01c0.01,0.12,0.02,0.25,0.03,0.37h-0.09h-17.75h-0.09
	c0.01-0.12,0.02-0.25,0.03-0.37c-1.13-6.26-6.58-11.01-13.16-11.01c-6.58,0-12.03,4.75-13.16,11.01c0.01,0.12,0.02,0.25,0.03,0.37
	h-0.09h-17.75h-0.09c0.01-0.12,0.02-0.25,0.03-0.37c-1.13-6.26-6.58-11.01-13.16-11.01c-6.71,0-12.25,4.94-13.22,11.38H85.56
	l-12.48,29.13h349.55L408.75,80.32z M60.52,436.9c4.72,0,8.54,3.82,8.54,8.54v6.03c0,4.72-3.82,8.54-8.54,8.54
	c-4.72,0-8.54-3.82-8.54-8.54v-6.03C51.98,440.72,55.8,436.9,60.52,436.9z M437.19,426.85c4.72,0,8.54,3.82,8.54,8.54v16.07
	c0,4.72-3.82,8.54-8.54,8.54c-4.72,0-8.54-3.82-8.54-8.54v-16.07C428.65,430.68,432.47,426.85,437.19,426.85z"/>
</svg>
