<?xml version="1.0" encoding="utf-8"?>
<!-- Generator: Adobe Illustrator 23.1.0, SVG Export Plug-In . SVG Version: 6.00 Build 0)  -->
<svg version="1.1" id="Слой_1" xmlns="http://www.w3.org/2000/svg" xmlns:xlink="http://www.w3.org/1999/xlink" x="0px" y="0px"
	 viewBox="0 0 492.97 467" style="enable-background:new 0 0 492.97 467;" xml:space="preserve">
<style type="text/css">
	.st0{fill-rule:evenodd;clip-rule:evenodd;fill:#5B6AB1;}
</style>
<path class="st0" d="M436.25,462h-8.12H65.56h-5.08H49.31V6h11.17h5.08h362.57h8.12h8.12v456H436.25z M289.17,445.75h107.3
	c0-20.4,0-63.05,0-66.26c0-6.55-44.91-9.67-44.91-24.03c-2.61,0.66-5.37,1.02-8.27,1c-3.17-0.03-6.17-0.5-8.99-1.33
	c0,15.14-45.13,17.75-45.13,24.36C289.17,382.7,289.17,425.35,289.17,445.75z M365.54,308.6v-8.42c0-13.25-9.96-23.99-22.24-23.99
	c-12.28,0-22.24,10.74-22.24,23.99v8.42c0,13.25,8.2,30.72,22.24,30.72C357.34,339.33,365.54,321.85,365.54,308.6z M98.24,445.75
	h107.3c0-20.4,0-63.05,0-66.26c0-6.55-44.91-9.67-44.91-24.03c-2.61,0.66-5.37,1.02-8.27,1c-3.17-0.03-6.17-0.5-8.99-1.33
	c0,15.14-45.13,17.75-45.13,24.36C98.24,382.7,98.24,425.35,98.24,445.75z M174.61,308.6v-8.42c0-13.25-9.96-23.99-22.24-23.99
	c-12.28,0-22.24,10.74-22.24,23.99v8.42c0,13.25,8.2,30.72,22.24,30.72C166.41,339.33,174.61,321.85,174.61,308.6z M239.23,22.25
	H65.56v204.13h16.25c0-24.42,0-63.16,0-68.18c0-19.42,41.16-23.63,47.49-30.68c-10.35-9.69-16.05-25.01-16.05-37.74V76.91
	c0-20.27,17.51-36.55,39.11-36.37c21.6,0.18,39.11,16.75,39.11,37.01v12.87c0,12.84-5.8,28.23-16.33,37.73
	c8.1,6.69,46.84,11.22,46.84,30.06c0,5.02,0,43.76,0,68.18h17.25V22.25z M160.63,136.09c-2.61,0.66-5.37,1.02-8.27,1
	c-3.17-0.03-6.17-0.5-8.99-1.33c0,15.14-45.13,17.75-45.13,24.36c0,3.22,0,45.87,0,66.26h107.3c0-20.4,0-63.05,0-66.26
	C205.54,153.57,160.63,150.45,160.63,136.09z M174.61,89.24v-8.42c0-13.25-9.96-23.99-22.24-23.99c-12.28,0-22.24,10.74-22.24,23.99
	v8.42c0,13.25,8.2,30.72,22.24,30.72C166.41,119.96,174.61,102.49,174.61,89.24z M239.23,242.63H65.56v203.12h16.25
	c0-24.42,0-63.16,0-68.18c0-19.42,41.16-23.63,47.49-30.68c-10.35-9.69-16.05-25.01-16.05-37.74v-12.87
	c0-20.26,17.51-36.55,39.11-36.37c21.6,0.18,39.11,16.75,39.11,37.01v12.87c0,12.84-5.8,28.23-16.33,37.73
	c8.1,6.69,46.84,11.22,46.84,30.06c0,5.02,0,43.76,0,68.18h17.25V242.63z M428.13,22.25H255.48v204.13h17.26
	c0-24.42,0-63.16,0-68.18c0-19.42,41.16-23.63,47.49-30.68c-10.35-9.69-16.05-25.01-16.05-37.74V76.91
	c0-20.27,17.51-36.55,39.11-36.37c21.6,0.18,39.11,16.75,39.11,37.01v12.87c0,12.84-5.8,28.23-16.33,37.73
	c8.1,6.69,46.84,11.22,46.84,30.06c0,5.02,0,43.76,0,68.18h15.22V22.25z M351.57,136.09c-2.61,0.66-5.37,1.02-8.27,1
	c-3.17-0.03-6.17-0.5-8.99-1.33c0,15.14-45.13,17.75-45.13,24.36c0,3.22,0,45.87,0,66.26h107.3c0-20.4,0-63.05,0-66.26
	C396.47,153.57,351.57,150.45,351.57,136.09z M365.54,89.24v-8.42c0-13.25-9.96-23.99-22.24-23.99c-12.28,0-22.24,10.74-22.24,23.99
	v8.42c0,13.25,8.2,30.72,22.24,30.72C357.34,119.96,365.54,102.49,365.54,89.24z M428.13,242.63H255.48v203.12h17.26
	c0-24.42,0-63.16,0-68.18c0-19.42,41.16-23.63,47.49-30.68c-10.35-9.69-16.05-25.01-16.05-37.74v-12.87
	c0-20.26,17.51-36.55,39.11-36.37c21.6,0.18,39.11,16.75,39.11,37.01v12.87c0,12.84-5.8,28.23-16.33,37.73
	c8.1,6.69,46.84,11.22,46.84,30.06c0,5.02,0,43.76,0,68.18h15.22V242.63z M354.43,210.89l-13.64-13.64l-13.64,13.64l-11.49-11.49
	l13.64-13.64l-13.64-13.64l11.49-11.49l13.64,13.64l13.64-13.64l11.49,11.49l-13.64,13.64l13.64,13.64L354.43,210.89z
	 M127.51,161.39h50.78v50.78h-50.78V161.39z M141.73,197.95h22.34V175.6h-22.34V197.95z M152.9,441.69l-34.53-59.92h68.04
	L152.9,441.69z M152.9,414.27l11.17-19.3h-22.34L152.9,414.27z M341.8,374.66c16.27,0,29.45,13.19,29.45,29.45
	c0,16.27-13.19,29.45-29.45,29.45s-29.45-13.19-29.45-29.45C312.35,387.85,325.54,374.66,341.8,374.66z M341.8,417.36
	c7.32,0,13.25-5.93,13.25-13.25c0-7.32-5.93-13.25-13.25-13.25c-7.32,0-13.25,5.93-13.25,13.25
	C328.55,411.43,334.48,417.36,341.8,417.36z"/>
</svg>
