<?xml version="1.0" encoding="utf-8"?>
<!-- Generator: Adobe Illustrator 23.1.0, SVG Export Plug-In . SVG Version: 6.00 Build 0)  -->
<svg version="1.1" id="Слой_1" xmlns="http://www.w3.org/2000/svg" xmlns:xlink="http://www.w3.org/1999/xlink" x="0px" y="0px"
	 viewBox="0 0 492.97 467" style="enable-background:new 0 0 492.97 467;" xml:space="preserve">
<style type="text/css">
	.st0{fill-rule:evenodd;clip-rule:evenodd;fill:#5B6AB1;}
</style>
<path class="st0" d="M429.48,330.52h-5.68v109.77c0,7.32-5.93,13.25-13.25,13.25h-10.41v1.42c0,4.44-3.6,8.04-8.04,8.04
	s-8.04-3.6-8.04-8.04v-1.42H111.52v1.42c0,4.44-3.6,8.04-8.04,8.04c-4.44,0-8.04-3.6-8.04-8.04v-1.42h-12.3
	c-7.32,0-13.25-5.93-13.25-13.25V330.52h-5.68c-7.32,0-13.25-5.93-13.25-13.25v-73.81c0-7.32,5.93-13.25,13.25-13.25h7.57v-51.1
	c0-7.32,5.93-13.25,13.25-13.25h142.89h15.14h1.89v19.87h117.81c4.96,0,8.99,4.02,8.99,8.99c0,4.96-4.02,8.99-8.99,8.99H244.95
	v17.03H297c6,0,11.06,3.99,12.69,9.46h119.79c7.32,0,13.25,5.93,13.25,13.25v73.81C442.72,324.59,436.79,330.52,429.48,330.52z
	 M170.96,435.91h151.76v-9.05H170.96V435.91z M86.77,377.83h6.13c4.53,0,8.21,3.6,8.21,8.04s-3.67,8.04-8.21,8.04h-6.13v41.99h67.33
	v-5.09c0-11.5,9.32-20.82,20.82-20.82h143.83c11.5,0,20.82,9.32,20.82,20.82v5.09h67.33v-41.99H124.14c-4.35,0-7.88-3.6-7.88-8.04
	s3.53-8.04,7.88-8.04h282.78v-47.31H86.77V377.83z M293.36,238.38h-93.03v46.13h93.03V238.38z M425.84,247.84H310.24v41.05
	c0,7.32-5.93,13.25-13.25,13.25H196.69c-7.32,0-13.25-5.93-13.25-13.25v-41.05h-36.79c-0.79,0.23-1.62,0.35-2.48,0.35h-18.93
	c-4.97,0-8.99-4.02-8.99-8.99c0-4.96,4.02-8.99,8.99-8.99h3.31h15.61H184c1.63-5.47,6.69-9.46,12.69-9.46h31.23v-37.26H88.67v46.72
	h2.51c4.96,0,8.99,4.02,8.99,8.99c0,4.97-4.02,8.99-8.99,8.99H72.25c-0.86,0-1.69-0.13-2.48-0.35h-1.92v65.06h357.99V247.84z
	 M399.19,135.59h-30.14l-22.12,22.12c-4.07,4.07-10.66,4.07-14.72,0l-22.12-22.12H94.49c-18.29,0-33.12-14.83-33.12-33.12V38.12
	C61.37,19.83,76.2,5,94.49,5h304.7c18.29,0,33.12,14.83,33.12,33.12v64.35C432.31,120.76,417.49,135.59,399.19,135.59z
	 M416.19,37.55c0-8.88-7.2-16.09-16.09-16.09H93.58c-8.88,0-16.09,7.2-16.09,16.09v65.48c0,8.88,7.2,16.09,16.09,16.09h221.54
	l0.38,0.38h2.6l21.48,21.48l21.48-21.48h3.55l0.38-0.38h35.12c8.88,0,16.09-7.2,16.09-16.09V37.55z M369.53,82.12h-17.45l-2.93,9.65
	h-9.01l14.16-46.33h13.06l14.16,46.33h-9.01L369.53,82.12z M367,73.94l-6.27-20.31l-6.17,20.31H367z M325.92,91.77h-26.7v7.72h-8.75
	V83.6c1.39,0,2.58-0.35,3.55-1.05s1.77-1.68,2.4-2.96c0.62-1.28,1.11-2.77,1.48-4.49c0.36-1.72,0.63-3.58,0.8-5.6
	c0.21-2.57,0.41-5.11,0.58-7.61c0.17-2.5,0.34-5.09,0.51-7.79c0.17-2.69,0.36-5.6,0.58-8.73l30.76,0.06V83.6h3.54v15.89h-8.75V91.77
	z M322.38,53.61l-14.03-0.06c-0.15,2.12-0.27,4.08-0.37,5.86c-0.1,1.78-0.21,3.58-0.34,5.4c-0.13,1.82-0.3,3.86-0.51,6.11
	c-0.21,2.25-0.43,4.1-0.64,5.55c-0.21,1.45-0.54,2.71-0.98,3.78c-0.44,1.07-1.1,2.19-1.98,3.35h18.85V53.61z M273.67,72.66h-20.72
	v19.11h-8.75V45.44h8.75v19.05h20.72V45.44h8.75v46.33h-8.75V72.66z M204.62,45.44h30.24v8.17h-21.49v9.91h17.63v8.17h-17.63v11.9
	h21.49v8.17h-30.24V45.44z M191.39,73.08c-1.77,1.39-4.03,2.31-6.77,2.74c-0.6,0.09-1.29,0.15-2.06,0.19
	c-0.77,0.04-1.37,0.06-1.8,0.06h-10.81v15.7h-8.75V45.44h19.56c0.45,0,1.06,0.02,1.82,0.05c0.76,0.03,1.44,0.1,2.04,0.21
	c2.77,0.43,5.03,1.34,6.8,2.73c1.77,1.39,3.07,3.15,3.91,5.26c0.84,2.11,1.25,4.47,1.25,7.06c0,2.6-0.42,4.95-1.27,7.06
	C194.46,69.93,193.16,71.68,191.39,73.08z M187.4,58.1c-0.25-0.93-0.69-1.78-1.34-2.54c-0.64-0.76-1.56-1.3-2.73-1.62
	c-0.45-0.13-0.94-0.21-1.48-0.26c-0.54-0.04-1.03-0.06-1.48-0.06h-10.42V67.9h10.42c0.45,0,0.94-0.02,1.48-0.06
	c0.54-0.04,1.03-0.13,1.48-0.26c1.18-0.32,2.09-0.86,2.73-1.62c0.64-0.76,1.09-1.61,1.34-2.54c0.25-0.93,0.37-1.82,0.37-2.65
	C187.77,59.92,187.64,59.03,187.4,58.1z M141.8,82.12h-17.45l-2.93,9.65h-9.01l14.16-46.33h13.06l14.16,46.33h-9.01L141.8,82.12z
	 M133.01,53.64l-6.17,20.31h12.44L133.01,53.64z"/>
</svg>
