<?xml version="1.0" encoding="utf-8"?>
<!-- Generator: Adobe Illustrator 23.1.0, SVG Export Plug-In . SVG Version: 6.00 Build 0)  -->
<svg version="1.1" id="Слой_1" xmlns="http://www.w3.org/2000/svg" xmlns:xlink="http://www.w3.org/1999/xlink" x="0px" y="0px"
	 viewBox="0 0 492.97 467" style="enable-background:new 0 0 492.97 467;" xml:space="preserve">
<style type="text/css">
	.st0{fill-rule:evenodd;clip-rule:evenodd;fill:#5B6AB1;}
</style>
<path class="st0" d="M489.5,101.97v34.49c0,5.26-4.26,9.52-9.52,9.52h-14.27v91.83c8.06,1.16,14.27,8.03,14.27,16.41v35.68
	c0,8.38-6.21,15.25-14.27,16.41v94.21c9.2,0,16.65,7.46,16.65,16.65V460h-92.78v-42.82c0-9.2,7.46-16.65,16.65-16.65v-93.97h-35.68
	v57.1c0,5.26-4.26,9.52-9.52,9.52h-25.37c-5.7,0-10.32-4.53-10.32-10.11c0-5.58,4.62-10.11,10.32-10.11h14.66V101.97h-33.31v223.62
	c0,5.26-4.26,9.52-9.52,9.52h-124.9c-5.26,0-9.52-4.26-9.52-9.52V101.97h-32.12v250.98h157.4c5.7,0,10.32,4.53,10.32,10.11
	c0,5.58-4.62,10.11-10.32,10.11h-168.1c-5.26,0-9.52-4.26-9.52-9.52v-57.1H83.88v93.97h1.19c9.2,0,16.65,7.46,16.65,16.65V460H8.95
	v-42.82c0-8.79,6.83-15.91,15.46-16.53v-94.33c-8.06-1.16-14.27-8.03-14.27-16.41v-35.68c0-8.38,6.21-15.25,14.27-16.41v-91.83
	H13.71c-5.26,0-9.52-4.26-9.52-9.52v-34.49V61.53V24.65C4.19,15.46,11.65,8,20.84,8h83.26c9.2,0,16.65,7.46,16.65,16.65v20.22
	h252.17V24.65c0-9.2,7.46-16.65,16.65-16.65h83.26c9.2,0,16.65,7.46,16.65,16.65L489.5,101.97z M410.8,438.59h50.33v-15.91H410.8
	V438.59z M444.3,400.53v-93.97h-16.65v93.97H444.3z M372.93,285.33h84.9v-26.54h-84.9V285.33z M444.3,237.57v-91.59h-16.65v91.59
	H444.3z M370.55,237.57h35.68v-91.59h-35.68V237.57z M193.32,314.88H296.8v-21.41H193.32V314.88z M193.32,272.06H296.8v-26.17
	H193.32V272.06z M193.32,224.48H296.8v-26.17H193.32V224.48z M193.32,176.9H296.8v-26.17H193.32V176.9z M193.32,129.33H296.8v-27.36
	H193.32V129.33z M117.19,285.33v-26.54h-84.9v26.54H117.19z M120.76,237.57v-91.59H83.88v91.59H120.76z M62.47,237.57v-91.59H45.82
	v91.59H62.47z M45.82,306.56v93.97h16.65v-93.97H45.82z M30.17,438.59H80.5v-15.91H30.17V438.59z M99.53,30.15H25.41v31.37h0.19
	v19.03h73.93V30.15z M25.6,101.97v22.6h95.16v-22.6H25.6z M372.93,66.28H120.76v14.27h252.17V66.28z M372.93,101.97h-2.38v22.6
	h97.54v-22.6H372.93z M468.27,30.15h-74.12v50.4h73.93V61.53h0.19V30.15z M432.37,66.5c-6.01,0-10.88-4.87-10.88-10.88
	s4.87-10.88,10.88-10.88s10.88,4.87,10.88,10.88S438.37,66.5,432.37,66.5z M47.81,46.06h29.32c5.7,0,10.32,4.53,10.32,10.11
	c0,5.58-4.62,10.11-10.32,10.11H47.81c-5.7,0-10.32-4.53-10.32-10.11C37.5,50.59,42.11,46.06,47.81,46.06z"/>
</svg>
