<?xml version="1.0" encoding="utf-8"?>
<!-- Generator: Adobe Illustrator 23.1.0, SVG Export Plug-In . SVG Version: 6.00 Build 0)  -->
<svg version="1.1" id="Слой_1" xmlns="http://www.w3.org/2000/svg" xmlns:xlink="http://www.w3.org/1999/xlink" x="0px" y="0px"
	 viewBox="0 0 492.97 467" style="enable-background:new 0 0 492.97 467;" xml:space="preserve">
<style type="text/css">
	.st0{fill-rule:evenodd;clip-rule:evenodd;fill:#5B6AB1;}
</style>
<path class="st0" d="M487.84,304.75v83.27c0,23.67-19.19,42.86-42.86,42.86h-17.14v16.53c0,5.75-4.66,10.41-10.41,10.41
	c-5.75,0-10.41-4.66-10.41-10.41v-16.53H84.97v16.53c0,5.75-4.66,10.41-10.41,10.41c-5.75,0-10.41-4.66-10.41-10.41v-16.53H50.68
	c-23.67,0-42.86-19.19-42.86-42.86v-83.27c0-23.67,19.19-42.86,42.86-42.86h34.89L7,77.62c-2.25-5.29,0.2-11.4,5.49-13.66
	c5.29-2.25,11.4,0.21,13.66,5.49l82.04,192.44h274.37l82.04-192.44c2.25-5.29,8.37-7.75,13.66-5.49c5.29,2.25,7.75,8.37,5.49,13.66
	L405.2,261.89h39.78C468.65,261.89,487.84,281.08,487.84,304.75z M49.5,283.2c-11.5,0-20.82,9.32-20.82,20.82v84.74
	c0,11.5,9.32,20.82,20.82,20.82h396.66c11.5,0,20.82-9.32,20.82-20.82v-84.74c0-11.5-9.32-20.82-20.82-20.82H49.5z M417.43,368.43
	c-5.75,0-10.41-4.66-10.41-10.41v-22.04c0-5.75,4.66-10.41,10.41-10.41c5.75,0,10.41,4.66,10.41,10.41v22.04
	C427.84,363.77,423.18,368.43,417.43,368.43z M359.88,368.43c-5.75,0-10.41-4.66-10.41-10.41v-22.04c0-5.75,4.66-10.41,10.41-10.41
	c5.75,0,10.41,4.66,10.41,10.41v22.04C370.29,363.77,365.63,368.43,359.88,368.43z M302.32,368.43c-5.75,0-10.41-4.66-10.41-10.41
	v-22.04c0-5.75,4.66-10.41,10.41-10.41c5.75,0,10.41,4.66,10.41,10.41v22.04C312.73,363.77,308.07,368.43,302.32,368.43z
	 M148.14,130.67c0,0-2.01,2.65-7.46,2.65c-5.75,0-10.41-4.66-10.41-10.41c0-5.42,2.54-7.57,2.54-7.57
	C160.99,85.8,200.73,67.4,244.77,67.4c0.2,0,0.41,0.01,0.61,0.01c0.2,0,0.41-0.01,0.61-0.01c44.04,0,83.78,18.4,111.96,47.94
	c0,0,2.54,2.15,2.54,7.57c0,5.75-4.66,10.41-10.41,10.41c-5.45,0-7.46-2.65-7.46-2.65c-24.25-25.62-58.57-41.6-96.63-41.6
	c-0.21,0-0.41,0.02-0.61,0.02l0,0l0,0l0,0l0,0c-0.21,0-0.41-0.02-0.61-0.02C206.71,89.07,172.39,105.05,148.14,130.67z
	 M190.16,165.97c-1.78,3.17-5.17,5.31-9.07,5.31c-5.75,0-10.41-4.66-10.41-10.41c0-4.28,1.54-6.12,1.54-6.12
	c18.08-19.47,43.88-31.66,72.55-31.66c0.21,0,0.41,0.02,0.61,0.02c0.21,0,0.41-0.02,0.61-0.02c28.66,0,54.47,12.19,72.55,31.66
	c0,0,1.54,1.84,1.54,6.12c0,5.75-4.66,10.41-10.41,10.41c-3.89,0-7.28-2.14-9.07-5.31c-14.11-13.73-33.37-22.2-54.61-22.2
	c-0.21,0-0.41,0.01-0.61,0.02l0,0l0,0l0,0l0,0c-0.21,0-0.41-0.02-0.61-0.02C223.53,143.77,204.27,152.24,190.16,165.97z
	 M245.38,202.86L245.38,202.86L245.38,202.86c-0.21-0.01-0.41-0.04-0.61-0.04c-6.65,0-12.51,3.37-15.98,8.49
	c0,0-1.78,2.81-7.29,2.81c-5.75,0-10.41-4.66-10.41-10.41c0-5.4,2.49-7.61,2.49-7.61c7.45-8.93,18.65-14.61,31.18-14.61
	c0.21,0,0.41,0.01,0.61,0.02c0.2,0,0.41-0.02,0.61-0.02c12.53,0,23.74,5.68,31.18,14.61c0,0,2.49,2.21,2.49,7.61
	c0,5.75-4.66,10.41-10.41,10.41c-5.51,0-7.29-2.81-7.29-2.81c-3.46-5.13-9.33-8.49-15.98-8.49
	C245.79,202.83,245.59,202.86,245.38,202.86L245.38,202.86L245.38,202.86z M389.27,90.45c-3.97,0-7.42-2.23-9.18-5.5
	c-34.58-33.82-81.9-54.68-134.09-54.68c-0.2,0-0.41,0.01-0.61,0.01l0,0l0,0l0,0l0,0c-0.21,0-0.41-0.01-0.61-0.01
	c-52.2,0-99.51,20.86-134.09,54.68c-1.75,3.27-5.21,5.5-9.18,5.5c-5.75,0-10.41-4.66-10.41-10.41c0-4.3,2.54-7.33,4.86-8.8
	c38.27-37.76,90.82-61.07,148.82-61.07c0.2,0,0.41,0.01,0.61,0.01c0.2,0,0.41-0.01,0.61-0.01c58,0,110.55,23.31,148.82,61.07
	c2.32,1.47,4.86,4.5,4.86,8.8C399.68,85.79,395.02,90.45,389.27,90.45z"/>
</svg>
