<svg xmlns="http://www.w3.org/2000/svg" width="28.94" height="28.938" viewBox="0 0 28.94 28.938">
  <defs>
    <style>
      .cls-1 {
        fill: #4d4763;
        fill-rule: evenodd;
      }
    </style>
  </defs>
  <path id="icon_insta" data-name="icon insta" class="cls-1" d="M1551,88.976h-13A7.974,7.974,0,0,1,1530.02,81V67.995a7.974,7.974,0,0,1,7.98-7.971h13a7.974,7.974,0,0,1,7.98,7.971V81A7.974,7.974,0,0,1,1551,88.976Zm6.03-20.911a6.167,6.167,0,0,0-6.17-6.167h-12.87a6.167,6.167,0,0,0-6.17,6.167V80.935a6.167,6.167,0,0,0,6.17,6.166h12.87a6.167,6.167,0,0,0,6.17-6.166V68.064Zm-5.04.53a1.731,1.731,0,1,1,1.73-1.731A1.728,1.728,0,0,1,1551.99,68.594Zm-7.79,13.613a7.633,7.633,0,1,1,7.63-7.632A7.627,7.627,0,0,1,1544.2,82.208Zm0-13.428a5.8,5.8,0,1,0,5.79,5.8A5.8,5.8,0,0,0,1544.2,68.78Z" transform="translate(-1530.03 -60.031)"/>
</svg>
