<svg xmlns="http://www.w3.org/2000/svg" width="28.25" height="16.15" viewBox="0 0 28.25 16.15">
  <defs>
    <style>
      .cls-1 {
        fill: #4d4763;
        fill-rule: evenodd;
      }
    </style>
  </defs>
  <path id="icon_ВК" data-name="icon ВК" class="cls-1" d="M413.078,5094.99c-0.131-.42-0.692-1.28,1.086-1.28h3.107a1.74,1.74,0,0,1,1.721,1.06c0.263,0.48,3.089,6.1,4.118,6.1s0.861-2.72.861-3.2c0-3.49-.674-3.19-1.759-3.6-0.019-.24,0-1.14,3.818-1.14,3.762,0,3.331.83,3.331,2.5v2.61c0,1.64.094,2.87,0.711,2.87,1.4,0,4.193-6.36,4.193-6.36a1.158,1.158,0,0,1,1.273-.84h4.3c1.853,0,1.179,1.04,1.011,1.47-0.861,2-4.417,5.76-4.417,6.98s4.679,4.2,4.679,5.95c0,0.71-1.029.95-1.909,0.95H435.8c-2.471,0-3.875-3.75-5.166-3.75-1.086,0-1.273,1.68-1.273,2.61a1.166,1.166,0,0,1-1.235,1.14h-1.872C418.206,5109.06,413.209,5095.41,413.078,5094.99Z" transform="translate(-412.875 -5092.94)"/>
</svg>
