<svg xmlns="http://www.w3.org/2000/svg" width="50.938" height="46.062" viewBox="0 0 50.938 46.062">
  <defs>
    <style>
      .cls-1 {
        fill: #2a2a2a;
        fill-rule: evenodd;
      }
    </style>
  </defs>
  <path id="LOGO" class="cls-1" d="M229.67,96.04H191.33a6.3,6.3,0,0,1-6.3-6.3V78.04h3.206V89.754a3.06,3.06,0,0,0,3.06,3.06H229.7a3.06,3.06,0,0,0,3.06-3.06V78.04h3.206v11.7A6.3,6.3,0,0,1,229.67,96.04Zm-25.02-20h-1.4l2.2-6.764h2.026l2.2,6.764h-1.4l-0.462-1.409h-2.707Zm2.77-2.6-0.972-2.965-0.957,2.965h1.929Zm6.41,12.524h-8.1V78.04h3.24v4.767h4.694A8.961,8.961,0,0,0,221.9,78.04h3.49A11.775,11.775,0,0,1,213.83,85.96Zm4.237-9.922V69.274h1.358v6.764h-1.358Zm-3.8-3.579h2.585a1.8,1.8,0,0,1,.015.216c0,0.1,0,.163,0,0.178a3.482,3.482,0,0,1-.419,1.724,3,3,0,0,1-1.183,1.177,3.649,3.649,0,0,1-1.8.425,3.688,3.688,0,0,1-1.293-.228,3.113,3.113,0,0,1-1.829-1.778,3.933,3.933,0,0,1-.272-1.518,3.738,3.738,0,0,1,.457-1.909,3.082,3.082,0,0,1,1.228-1.2,3.562,3.562,0,0,1,1.709-.413,3.514,3.514,0,0,1,2.181.606,2.949,2.949,0,0,1,1.063,1.714l-1.387.188a1.966,1.966,0,0,0-.637-0.946,1.766,1.766,0,0,0-1.13-.36,2.049,2.049,0,0,0-1.138.277,1.761,1.761,0,0,0-.682.813,3.093,3.093,0,0,0-.227,1.23,3.025,3.025,0,0,0,.227,1.222,1.763,1.763,0,0,0,.682.8,2.154,2.154,0,0,0,1.138.3,2.027,2.027,0,0,0,.841-0.151,1.545,1.545,0,0,0,.636-0.5,2.162,2.162,0,0,0,.37-0.879h-1.138V72.458ZM205.73,67.6V59.68h8.1a11.775,11.775,0,0,1,11.556,7.92H221.9a8.961,8.961,0,0,0-8.232-4.767H208.97V67.6h-3.24Zm17.236,7.09a2.112,2.112,0,0,0,1.141.287,2.034,2.034,0,0,0,1.222-.343A1.84,1.84,0,0,0,226,73.679l1.368,0.357a3.079,3.079,0,0,1-1.186,1.564,3.581,3.581,0,0,1-2.078.578,3.719,3.719,0,0,1-1.86-.442,3.017,3.017,0,0,1-1.2-1.235,4.258,4.258,0,0,1,0-3.692,3.024,3.024,0,0,1,1.2-1.235,3.725,3.725,0,0,1,1.86-.442,3.582,3.582,0,0,1,2.078.578,3.079,3.079,0,0,1,1.186,1.564L226,71.632a1.83,1.83,0,0,0-.674-0.956,2.048,2.048,0,0,0-1.222-.341,2.112,2.112,0,0,0-1.141.287,1.771,1.771,0,0,0-.686.808,3.384,3.384,0,0,0,0,2.453A1.771,1.771,0,0,0,222.966,74.689ZM195.29,59.68h3.24V67.6h-3.24V59.68Zm3.24,26.28h-3.24V78.04h3.24v7.92Zm-3.463-16.686h1.218l2.376,4.491,2.376-4.491h1.217v6.764h-1.267V72L198.9,76.037h-0.479L196.335,72v4.039h-1.268V69.274Zm37.7-13.029a3.06,3.06,0,0,0-3.06-3.06H191.3a3.06,3.06,0,0,0-3.06,3.06V67.6H185.03V56.26a6.3,6.3,0,0,1,6.3-6.3h38.34a6.3,6.3,0,0,1,6.3,6.3V67.6h-3.206V56.245Z" transform="translate(-185.031 -49.969)"/>
</svg>
