<svg xmlns="http://www.w3.org/2000/svg" width="50.938" height="46.06" viewBox="0 0 50.938 46.06">
  <defs>
    <style>
      .cls-1 {
        fill: #fff;
        fill-rule: evenodd;
      }
    </style>
  </defs>
  <path id="LOGO" class="cls-1" d="M229.67,5523.04H191.33a6.3,6.3,0,0,1-6.3-6.3v-11.7h3.206v11.71a3.06,3.06,0,0,0,3.06,3.06H229.7a3.06,3.06,0,0,0,3.06-3.06v-11.71h3.206v11.7A6.3,6.3,0,0,1,229.67,5523.04Zm-25.02-20h-1.4l2.2-6.77h2.026l2.2,6.77h-1.4l-0.462-1.41h-2.707Zm2.77-2.6-0.972-2.97-0.957,2.97h1.929Zm6.41,12.52h-8.1v-7.92h3.24v4.77h4.694a8.96,8.96,0,0,0,8.232-4.77h3.49A11.774,11.774,0,0,1,213.83,5512.96Zm4.237-9.92v-6.77h1.358v6.77h-1.358Zm-3.8-3.58h2.585a1.709,1.709,0,0,1,.015.21c0,0.11,0,.17,0,0.18a3.5,3.5,0,0,1-.419,1.73,2.966,2.966,0,0,1-1.183,1.17,3.579,3.579,0,0,1-1.8.43,3.733,3.733,0,0,1-1.293-.23,3.238,3.238,0,0,1-1.085-.67,3.179,3.179,0,0,1-.744-1.11,3.911,3.911,0,0,1-.272-1.51,3.725,3.725,0,0,1,.457-1.91,3.009,3.009,0,0,1,1.228-1.2,3.963,3.963,0,0,1,3.89.19,2.92,2.92,0,0,1,1.063,1.71l-1.387.19a2.017,2.017,0,0,0-.637-0.95,1.782,1.782,0,0,0-1.13-.35,2.018,2.018,0,0,0-1.138.27,1.75,1.75,0,0,0-.682.81,3.171,3.171,0,0,0-.227,1.24,3.035,3.035,0,0,0,.227,1.22,1.775,1.775,0,0,0,.682.8,2.2,2.2,0,0,0,1.138.3,2.257,2.257,0,0,0,.841-0.15,1.582,1.582,0,0,0,.636-0.51,2.163,2.163,0,0,0,.37-0.88h-1.138v-0.98Zm-8.534-4.86v-7.92h8.1a11.774,11.774,0,0,1,11.556,7.92H221.9a8.96,8.96,0,0,0-8.232-4.77H208.97v4.77h-3.24Zm17.236,7.09a2.118,2.118,0,0,0,1.141.29,2.026,2.026,0,0,0,1.222-.35,1.826,1.826,0,0,0,.674-0.95l1.368,0.36a3.078,3.078,0,0,1-1.186,1.56,3.547,3.547,0,0,1-2.078.58,3.768,3.768,0,0,1-1.86-.44,3.062,3.062,0,0,1-1.2-1.24,4.253,4.253,0,0,1,0-3.69,3.062,3.062,0,0,1,1.2-1.24,3.768,3.768,0,0,1,1.86-.44,3.621,3.621,0,0,1,2.078.58,3.12,3.12,0,0,1,1.186,1.56l-1.368.36a1.787,1.787,0,0,0-.674-0.95,2.024,2.024,0,0,0-1.222-.34,2.117,2.117,0,0,0-1.141.28,1.758,1.758,0,0,0-.686.81,3.05,3.05,0,0,0-.23,1.23,3,3,0,0,0,.23,1.22A1.758,1.758,0,0,0,222.966,5501.69Zm-27.676-15.01h3.24v7.92h-3.24v-7.92Zm3.24,26.28h-3.24v-7.92h3.24v7.92Zm-3.463-16.69h1.218l2.376,4.49,2.376-4.49h1.217v6.77h-1.267V5499l-2.087,4.04h-0.479l-2.086-4.04v4.04h-1.268v-6.77Zm37.7-13.02a3.06,3.06,0,0,0-3.06-3.06H191.3a3.06,3.06,0,0,0-3.06,3.06v11.35H185.03v-11.34a6.3,6.3,0,0,1,6.3-6.3h38.34a6.3,6.3,0,0,1,6.3,6.3v11.34h-3.206v-11.35Z" transform="translate(-185.031 -5476.97)"/>
</svg>
