<svg xmlns="http://www.w3.org/2000/svg" width="52.937" height="50.34" viewBox="0 0 52.937 50.34">
  <defs>
    <style>
      .cls-1 {
        fill: #586bd6;
        fill-rule: evenodd;
      }
    </style>
  </defs>
  <path id="icon_01" data-name="icon 01" class="cls-1" d="M405.511,1136.53a0.955,0.955,0,1,1,0-1.91h2.454v-3.07c0-.73-4.957-1.08-4.957-2.67a3.85,3.85,0,0,1-.913.11,3.223,3.223,0,0,1-.992-0.15c0,1.68-4.981,1.97-4.981,2.71v3.07H402.2a0.955,0.955,0,1,1,0,1.91h-7.895v-5.2c0-2.15,4.542-2.62,5.242-3.4a6.059,6.059,0,0,1-1.772-4.19v-1.43a4.16,4.16,0,0,1,4.317-4.04,4.244,4.244,0,0,1,4.317,4.11v1.43a5.936,5.936,0,0,1-1.8,4.19c0.894,0.74,5.17,1.24,5.17,3.33v5.2h-4.268Zm-0.96-13.78a2.463,2.463,0,1,0-4.909,0v0.93c0,1.47.906,3.41,2.455,3.41s2.454-1.94,2.454-3.41v-0.93Zm-18.462-10h-5.56v-8.53H368.443v-15.26h12.086v-2.76h5.56v2.76h12.086v15.26H386.089v8.53Zm-3.626-1.92h1.692v-6.61h-1.692v6.61Zm1.692-22.71h-1.692v0.84h1.692v-0.84Zm12.086,14.18v-11.42H370.377v11.42h25.864Zm-16.618-10.22a0.91,0.91,0,0,1,.906.91v4.2a0.907,0.907,0,0,1-1.813,0v-4.2A0.91,0.91,0,0,1,379.623,1092.08Zm0,6.73a0.908,0.908,0,0,1,.906.9v0.24a0.907,0.907,0,0,1-1.813,0v-0.24A0.908,0.908,0,0,1,379.623,1098.81Zm3.747-6.73a0.91,0.91,0,0,1,.906.91v4.2a0.907,0.907,0,0,1-1.813,0v-4.2A0.91,0.91,0,0,1,383.37,1092.08Zm0,6.73a0.908,0.908,0,0,1,.906.9v0.24a0.907,0.907,0,0,1-1.813,0v-0.24A0.908,0.908,0,0,1,383.37,1098.81Zm3.625-6.73a0.91,0.91,0,0,1,.907.91v4.2a0.907,0.907,0,0,1-1.813,0v-4.2A0.91,0.91,0,0,1,387,1092.08Zm0,6.73a0.908,0.908,0,0,1,.907.9v0.24a0.907,0.907,0,0,1-1.813,0v-0.24A0.908,0.908,0,0,1,387,1098.81Zm7.071-.36a1.2,1.2,0,1,1-1.209,1.2A1.207,1.207,0,0,1,394.066,1098.45Zm-25.121,25.36a5.94,5.94,0,0,1-1.8,4.19c0.893,0.74,5.169,1.24,5.169,3.33v5.2h-4.268a0.955,0.955,0,1,1,0-1.91H370.5v-3.07c0-.73-4.957-1.08-4.957-2.67a3.865,3.865,0,0,1-.914.11,3.228,3.228,0,0,1-.992-0.15c0,1.68-4.981,1.97-4.981,2.71v3.07h6.082a0.955,0.955,0,1,1,0,1.91h-7.9v-5.2c0-2.15,4.543-2.62,5.242-3.4a6.059,6.059,0,0,1-1.772-4.19v-1.43a4.16,4.16,0,0,1,4.317-4.04,4.244,4.244,0,0,1,4.318,4.11v1.43Zm-1.861-1.06a2.464,2.464,0,1,0-4.91,0v0.93c0,1.47.906,3.41,2.455,3.41s2.455-1.94,2.455-3.41v-0.93Zm0.572,8.86a1.26,1.26,0,1,1-1.268,1.26A1.262,1.262,0,0,1,367.656,1131.61Zm2.721-6.07a0.783,0.783,0,0,1,.785-0.78h4.956a0.78,0.78,0,1,1,0,1.56h-4.956A0.783,0.783,0,0,1,370.377,1125.54Zm7.856-6.7a0.8,0.8,0,0,1-.968.93,6.33,6.33,0,0,1-2.685-2.58,2.363,2.363,0,0,1-1.88,0,6.33,6.33,0,0,1-2.685,2.58,0.8,0.8,0,0,1-.968-0.93c0-.56,2.1-1.63,2.1-2.56a6.059,6.059,0,0,1-1.772-4.19v-1.43a4.271,4.271,0,0,1,8.53,0v1.43a6.059,6.059,0,0,1-1.772,4.19C376.133,1117.21,378.233,1118.28,378.233,1118.84Zm-2.192-7.75a2.414,2.414,0,1,0-4.8,0v0.94c0,1.45.886,3.36,2.4,3.4,1.515-.04,2.4-1.95,2.4-3.4v-0.94Zm4.775,16.84a6.059,6.059,0,0,1-1.772-4.19v-1.43a4.16,4.16,0,0,1,4.317-4.04,4.243,4.243,0,0,1,4.317,4.11v1.43a5.939,5.939,0,0,1-1.8,4.19c0.893,0.74,5.169,1.24,5.169,3.33v5.2h-4.268a0.955,0.955,0,1,1,0-1.91h2.454v-3.07c0-.73-4.956-1.08-4.956-2.67a3.865,3.865,0,0,1-.914.11,3.223,3.223,0,0,1-.992-0.15c0,1.68-4.981,1.97-4.981,2.71v3.07h6.082a0.955,0.955,0,1,1,0,1.91h-7.9v-5.2C375.574,1129.18,380.117,1128.71,380.816,1127.93Zm0.092-4.25c0,1.47.906,3.41,2.455,3.41s2.455-1.94,2.455-3.41v-0.93a2.464,2.464,0,1,0-4.91,0v0.93Zm5.482,7.93a1.26,1.26,0,1,1-1.269,1.26A1.262,1.262,0,0,1,386.39,1131.61Zm8.7-5.29h-4.955a0.78,0.78,0,1,1,0-1.56h4.955A0.78,0.78,0,1,1,395.093,1126.32Zm2.115-7.48a0.8,0.8,0,0,1-.968.93,6.326,6.326,0,0,1-2.684-2.58,2.366,2.366,0,0,1-1.881,0,6.326,6.326,0,0,1-2.684,2.58,0.8,0.8,0,0,1-.968-0.93c0-.56,2.1-1.63,2.1-2.56a6.059,6.059,0,0,1-1.772-4.19v-1.43a4.272,4.272,0,0,1,8.531,0v1.43a6.059,6.059,0,0,1-1.772,4.19C395.109,1117.21,397.208,1118.28,397.208,1118.84Zm-2.192-7.75a2.413,2.413,0,1,0-4.8,0v0.94c0,1.45.885,3.36,2.4,3.4,1.515-.04,2.4-1.95,2.4-3.4v-0.94Zm10.108,20.52a1.26,1.26,0,1,1-1.269,1.26A1.262,1.262,0,0,1,405.124,1131.61Z" transform="translate(-356.844 -1086.19)"/>
</svg>
