<svg xmlns="http://www.w3.org/2000/svg" width="50.031" height="50.37" viewBox="0 0 50.031 50.37">
  <defs>
    <style>
      .cls-1 {
        fill: #586bd6;
        fill-rule: evenodd;
      }
    </style>
  </defs>
  <path id="icon_02" data-name="icon 02" class="cls-1" d="M792.427,1136.36H751.364a4.488,4.488,0,0,1-4.487-4.49v-25.24a4.488,4.488,0,0,1,4.487-4.49h14.922v-9.99l11.668-6.17h12.454v9.31H777.954v6.85h14.473a4.489,4.489,0,0,1,4.488,4.49v25.24A4.489,4.489,0,0,1,792.427,1136.36Zm-16.38-47.24-7.854,4.27v6.17h7.854v-10.44Zm0,12.34h-7.854v4.27h7.854v-4.27Zm12.454-8.19V1088H777.954v5.27H788.5Zm6.395,13.13a2.24,2.24,0,0,0-2.244-2.24h-14.7v3.47H766.286v-3.47H751.14a2.24,2.24,0,0,0-2.244,2.24v25.69a2.249,2.249,0,0,0,2.244,2.25h41.512a2.249,2.249,0,0,0,2.244-2.25V1106.4Zm-5.5,13.69H773.579a1.01,1.01,0,0,1,0-2.02H789.4A1.01,1.01,0,0,1,789.4,1120.09Zm0-4.71H773.579a1.01,1.01,0,0,1,0-2.02H789.4A1.01,1.01,0,1,1,789.4,1115.38Zm-25.019,12.45a1.008,1.008,0,0,1,1.01-1.01h2.58v-3.25c0-.77-4.3-1.39-5.212-2.82a3.353,3.353,0,0,1-.96.11,3.561,3.561,0,0,1-1.044-.15c-0.861,1.46-5.237,2.08-5.237,2.86v3.25h6.395a1.01,1.01,0,0,1,0,2.02h-8.3v-5.5c0-2.28,4.777-2.77,5.512-3.6a6.389,6.389,0,0,1-1.863-4.43v-1.51a4.383,4.383,0,0,1,4.54-4.26,4.467,4.467,0,0,1,4.539,4.34v1.51a6.255,6.255,0,0,1-1.9,4.42c0.94,0.79,5.436,1.32,5.436,3.53v5.5h-4.487A1.008,1.008,0,0,1,764.379,1127.83Zm0-13.57a2.591,2.591,0,1,0-5.163,0v0.99c0,1.55.953,3.6,2.581,3.6s2.582-2.05,2.582-3.6v-0.99Zm0.56,9.19a1.01,1.01,0,1,1-1.01,1.01A1.015,1.015,0,0,1,764.94,1123.45Zm8.639-.78h12.9a1.01,1.01,0,0,1,0,2.02h-12.9A1.01,1.01,0,0,1,773.579,1122.67Z" transform="translate(-746.875 -1085.97)"/>
</svg>
