<svg xmlns="http://www.w3.org/2000/svg" width="45.43" height="50.9" viewBox="0 0 45.43 50.9">
  <defs>
    <style>
      .cls-1 {
        fill: #586bd6;
        fill-rule: evenodd;
      }
    </style>
  </defs>
  <path id="icon_03" data-name="icon 03" class="cls-1" d="M1180.48,1130.78a0.96,0.96,0,1,1-1.92,0v-6.46a1.923,1.923,0,0,0-1.93-1.92H1140a1.92,1.92,0,0,0-1.92,1.92l-0.01,8.16a0.96,0.96,0,1,1-1.92,0v-8.09a3.963,3.963,0,0,1,3.96-3.96h36.42a3.961,3.961,0,0,1,3.95,3.96v6.39Zm-33.23-5.69h22.12v2.03h-22.12v-2.03Zm3.83-27.39h2.26l5.88,10.52-1.13,1.92Zm2.37,21.14a3.244,3.244,0,0,0-2.15-4.25,3.5,3.5,0,0,0-2.25-4.44,3.515,3.515,0,0,1-.2-2.69,9.741,9.741,0,0,0-4.29-6.19,3.518,3.518,0,0,1-.2-2.69,3.386,3.386,0,0,1-1.03-.54h3.27l0.21,0.42,0.01,0.01c-0.01,0-.03.01-0.04,0.01a1.508,1.508,0,0,0,1.34,2.65,0.053,0.053,0,0,1,.03-0.02l0.01,0.01,0.9,1.78v0.01c-0.01,0-.02.01-0.03,0.01a1.506,1.506,0,0,0,1.33,2.65,0.142,0.142,0,0,1,.04-0.02v0.01l0.91,1.78v0.01c-0.01,0-.03.01-0.04,0.01a1.508,1.508,0,0,0,1.34,2.65,0.052,0.052,0,0,1,.04-0.02V1110l0.9,1.78,0.01,0.01a0.227,0.227,0,0,0-.04.01,1.529,1.529,0,0,0-.44,1.89,1.506,1.506,0,0,0,1.77.76,0.142,0.142,0,0,1,.04-0.02l0.01,0.01,0.57,1.13Zm-1.92,4.42,1.7-3.16,15.38-.12-1.47,3.06Zm22.11-23.49a3.509,3.509,0,0,0-2.24,4.44,3.5,3.5,0,0,0-2.25,4.44,3.488,3.488,0,0,0-2.24,4.44,3.5,3.5,0,0,0-2.25,4.44,3.5,3.5,0,0,0-2.25,4.44,3.5,3.5,0,0,1-2.04,1.75,3.541,3.541,0,0,1,.11,1.8h-2.1a0.01,0.01,0,0,1,.01-0.01,1.512,1.512,0,0,0-.44-1.88,0.147,0.147,0,0,1-.04-0.02v-0.01l0.91-1.78v-0.01a0.147,0.147,0,0,0,.04.02,1.5,1.5,0,0,0,1.33-2.64,0.147,0.147,0,0,0-.04-0.02l0.01-.01,0.9-1.78,0.01-.01a0.053,0.053,0,0,1,.03.02,1.5,1.5,0,0,0,1.34-2.64,0.076,0.076,0,0,0-.04-0.02l0.01-.01,0.9-1.78v-0.01a0.076,0.076,0,0,1,.04.02,1.5,1.5,0,0,0,1.34-2.64,0.142,0.142,0,0,0-.04-0.02v-0.01l0.9-1.78,0.01-.01a0.053,0.053,0,0,1,.03.02,1.508,1.508,0,0,0,1.34-2.65,0.227,0.227,0,0,0-.04-0.01l0.01-.01,0.9-1.78v-0.01a0.052,0.052,0,0,1,.04.02,1.51,1.51,0,0,0,1.34-2.65,0.227,0.227,0,0,1-.04-0.01v-0.01l0.91-1.78v-0.01a0.142,0.142,0,0,1,.04.02,1.5,1.5,0,0,0,1.93-1.36h2A3.4,3.4,0,0,1,1173.64,1099.77Zm-10.57-1.84h2.26l-14.14,28.16h-2.26Zm-14.93,23.18-12.78-22.5,5.88-13.23h33.48l6.1,13.11-14.02,27.6h-2.15l13.91-27.37h-40.83l12.67,22.51Zm-9.61-24.31h39.35l-4.52-9.5H1142.6Zm35.98-3.28a1.505,1.505,0,0,0-2.97-.04v0.04h-2.02a0.048,0.048,0,0,1,.01-0.04,1.509,1.509,0,0,0-2.97,0,0.076,0.076,0,0,0,.01.04h-2.02v-0.04a1.5,1.5,0,0,0-2.96,0v0.04h-2.02v-0.04a1.5,1.5,0,0,0-2.96,0v0.04h-2.02a0.227,0.227,0,0,1,.01-0.04,1.509,1.509,0,0,0-2.97,0,0.048,0.048,0,0,1,.01.04h-2.02v-0.04a1.5,1.5,0,0,0-2.96,0v0.04h-2.02v-0.04a1.505,1.505,0,0,0-2.97.04h-2a121.972,121.972,0,0,0,8.47-3.28,3.516,3.516,0,0,1,2.49,1.04,3.489,3.489,0,0,1,4.97,0,3.5,3.5,0,0,1,4.98,0,3.48,3.48,0,0,1,2.49-1.04,3.516,3.516,0,0,1,2.49,1.04,3.489,3.489,0,0,1,4.97,0,3.505,3.505,0,0,1,5.99,2.24h-2.01Zm-37.4,40.15a0.96,0.96,0,0,1,.96.96v0.68a0.96,0.96,0,1,1-1.92,0v-0.68A0.96,0.96,0,0,1,1137.11,1133.67Zm42.41-1.13a0.96,0.96,0,0,1,.96.96v1.81a0.96,0.96,0,0,1-1.92,0v-1.81A0.96,0.96,0,0,1,1179.52,1132.54Z" transform="translate(-1135.38 -1085.38)"/>
</svg>
