<svg xmlns="http://www.w3.org/2000/svg" width="44.78" height="51.72" viewBox="0 0 44.78 51.72">
  <defs>
    <style>
      .cls-1 {
        fill: #586bd6;
        fill-rule: evenodd;
      }
    </style>
  </defs>
  <path id="icon_04" data-name="icon 04" class="cls-1" d="M1568.92,1136.3h-43.86v-51.69h44.78v51.69h-0.92Zm-16.67-1.84h12.16v-7.52c0-.74-5.09-1.09-5.09-2.72a3.123,3.123,0,0,1-.93.11,3.4,3.4,0,0,1-1.02-.15c0,1.72-5.12,2.02-5.12,2.76v7.52Zm8.66-15.55v-0.95a2.527,2.527,0,1,0-5.04,0v0.95c0,1.5.93,3.48,2.52,3.48S1560.91,1120.41,1560.91,1118.91Zm-30.3,15.55h12.16v-7.52c0-.74-5.09-1.09-5.09-2.72a3.191,3.191,0,0,1-.94.11,3.4,3.4,0,0,1-1.02-.15c0,1.72-5.11,2.02-5.11,2.76v7.52Zm8.66-15.55v-0.95a2.532,2.532,0,1,0-5.05,0v0.95c0,1.5.93,3.48,2.53,3.48S1539.27,1120.41,1539.27,1118.91Zm7.32-32.46H1526.9v23.14h1.85v-7.73c0-2.2,4.66-2.68,5.38-3.48a6.143,6.143,0,0,1-1.82-4.27v-1.46a4.267,4.267,0,0,1,4.43-4.13,4.352,4.352,0,0,1,4.44,4.2v1.46a6.038,6.038,0,0,1-1.85,4.27c0.91,0.76,5.3,1.28,5.3,3.41v7.73h1.96v-23.14Zm-8.91,12.91a4.037,4.037,0,0,1-.94.11,3.751,3.751,0,0,1-1.02-.15c0,1.71-5.11,2.01-5.11,2.76v7.51h12.16v-7.51C1542.77,1101.34,1537.68,1100.98,1537.68,1099.36Zm1.59-5.32v-0.95a2.532,2.532,0,1,0-5.05,0v0.95c0,1.51.93,3.49,2.53,3.49S1539.27,1095.55,1539.27,1094.04Zm7.32,17.39H1526.9v23.03h1.85v-7.73c0-2.2,4.66-2.68,5.38-3.48a6.184,6.184,0,0,1-1.82-4.28v-1.46a4.259,4.259,0,0,1,4.43-4.12,4.351,4.351,0,0,1,4.44,4.19v1.46a6.061,6.061,0,0,1-1.85,4.28c0.91,0.76,5.3,1.27,5.3,3.41v7.73h1.96v-23.03Zm21.41-24.98h-19.57v23.14h1.96v-7.73c0-2.2,4.66-2.68,5.38-3.48a6.143,6.143,0,0,1-1.82-4.27v-1.46a4.269,4.269,0,0,1,4.44-4.13,4.35,4.35,0,0,1,4.43,4.2v1.46a6.038,6.038,0,0,1-1.85,4.27c0.92,0.76,5.31,1.28,5.31,3.41v7.73H1568v-23.14Zm-8.68,12.91a3.95,3.95,0,0,1-.93.11,3.751,3.751,0,0,1-1.02-.15c0,1.71-5.12,2.01-5.12,2.76v7.51h12.16v-7.51C1564.41,1101.34,1559.32,1100.98,1559.32,1099.36Zm1.59-5.32v-0.95a2.527,2.527,0,1,0-5.04,0v0.95c0,1.51.93,3.49,2.52,3.49S1560.91,1095.55,1560.91,1094.04Zm7.09,17.39h-19.57v23.03h1.96v-7.73c0-2.2,4.66-2.68,5.38-3.48a6.184,6.184,0,0,1-1.82-4.28v-1.46a4.261,4.261,0,0,1,4.44-4.12,4.348,4.348,0,0,1,4.43,4.19v1.46a6.061,6.061,0,0,1-1.85,4.28c0.92,0.76,5.31,1.27,5.31,3.41v7.73H1568v-23.03Zm-8.35-3.6-1.55-1.54-1.54,1.54-1.31-1.3,1.55-1.54-1.55-1.55,1.31-1.3,1.54,1.54,1.55-1.54,1.3,1.3-1.55,1.55,1.55,1.54Zm-25.72-5.61h5.75v5.76h-5.75v-5.76Zm1.61,4.15h2.53v-2.54h-2.53v2.54Zm1.27,27.63-3.92-6.8h7.71Zm0-3.11,1.26-2.19h-2.53Zm21.41-4.49a3.335,3.335,0,1,1-3.34,3.34A3.34,3.34,0,0,1,1558.22,1126.4Zm0,4.84a1.505,1.505,0,1,0-1.5-1.5A1.5,1.5,0,0,0,1558.22,1131.24Z" transform="translate(-1525.06 -1084.59)"/>
</svg>
