<svg xmlns="http://www.w3.org/2000/svg" width="47.12" height="55.125" viewBox="0 0 47.12 55.125">
  <defs>
    <style>
      .cls-1 {
        fill: #586bd6;
        fill-rule: evenodd;
      }
    </style>
  </defs>
  <path id="icon_05" data-name="icon 05" class="cls-1" d="M1746.98,1032.04h-0.68v13.21a1.6,1.6,0,0,1-1.59,1.6h-1.26v0.17a0.965,0.965,0,1,1-1.93,0v-0.17h-32.79v0.17a0.97,0.97,0,1,1-1.94,0v-0.17h-1.48a1.6,1.6,0,0,1-1.59-1.6v-13.21h-0.69a1.588,1.588,0,0,1-1.59-1.59v-8.88a1.6,1.6,0,0,1,1.59-1.6h0.91v-6.14a1.6,1.6,0,0,1,1.6-1.6h19.24v2.39h14.18a1.085,1.085,0,0,1,0,2.17h-14.18v2.05h6.26a1.6,1.6,0,0,1,1.53,1.13h14.41a1.6,1.6,0,0,1,1.6,1.6v8.88A1.6,1.6,0,0,1,1746.98,1032.04Zm-31.1,12.69h18.26v-1.09h-18.26v1.09Zm-10.13-6.99h0.74a0.965,0.965,0,1,1,0,1.93h-0.74v5.06h8.1v-0.62a2.5,2.5,0,0,1,2.5-2.5h17.31a2.5,2.5,0,0,1,2.51,2.5v0.62h8.1v-5.06h-34.03a0.965,0.965,0,0,1,0-1.93h34.03v-5.7h-38.52v5.7Zm24.86-16.78h-11.2v5.55h11.2v-5.55Zm15.94,1.14h-13.91v4.93a1.6,1.6,0,0,1-1.6,1.6h-12.07a1.6,1.6,0,0,1-1.59-1.6v-4.93h-4.43a1.361,1.361,0,0,1-.3.04h-2.27a1.085,1.085,0,0,1,0-2.17h7.07a1.584,1.584,0,0,1,1.52-1.13h3.76v-4.49h-16.75v5.62h0.3a1.085,1.085,0,0,1,0,2.17H1704a1.544,1.544,0,0,1-.3-0.04h-0.23v7.82h43.08v-7.82Zm-3.21-13.51h-3.63l-2.66,2.66a1.249,1.249,0,0,1-1.77,0l-2.66-2.66h-25.94a4,4,0,0,1-3.99-3.99v-7.739a3.991,3.991,0,0,1,3.99-3.986h36.66a3.991,3.991,0,0,1,3.99,3.986v7.739A4,4,0,0,1,1743.34,1008.59Zm2.05-11.8a1.939,1.939,0,0,0-1.94-1.936h-36.88a1.939,1.939,0,0,0-1.94,1.936v7.878a1.942,1.942,0,0,0,1.94,1.94h26.65l0.05,0.04h0.31l2.59,2.59,2.58-2.59h0.43l0.04-.04h4.23a1.942,1.942,0,0,0,1.94-1.94v-7.878Zm-5.62,5.358h-2.1l-0.35,1.17h-1.09l1.71-5.579h1.57l1.7,5.579h-1.08Zm-0.3-.98-0.76-2.442-0.74,2.442h1.5Zm-4.95,2.15h-3.21v0.93h-1.05v-1.92a0.717,0.717,0,0,0,.42-0.12,0.944,0.944,0,0,0,.29-0.36,1.9,1.9,0,0,0,.18-0.54,4.489,4.489,0,0,0,.1-0.67c0.02-.31.05-0.62,0.07-0.919s0.04-.612.06-0.936,0.04-.674.07-1.051l3.7,0.007v4.589h0.43v1.92h-1.06v-0.93Zm-0.42-4.6-1.69-.008c-0.02.255-.03,0.49-0.04,0.705s-0.03.431-.05,0.648-0.03.47-.06,0.74-0.05.49-.08,0.67a1.854,1.854,0,0,1-.11.45,2.488,2.488,0,0,1-.24.4h2.27v-3.605Zm-5.86,2.295h-2.5v2.3h-1.05v-5.579h1.05v2.289h2.5v-2.289h1.05v5.579h-1.05v-2.3Zm-8.31-3.279h3.64v0.984h-2.59v1.192h2.12v0.983h-2.12v1.43h2.59v0.99h-3.64v-5.579Zm-1.59,3.329a1.965,1.965,0,0,1-.82.33c-0.07.01-.15,0.01-0.25,0.02s-0.16.01-.21,0.01h-1.3v1.89h-1.06v-5.579h2.36q0.075,0,.21.006a1.91,1.91,0,0,1,.25.025,1.741,1.741,0,0,1,.82.329,1.511,1.511,0,0,1,.47.633,2.309,2.309,0,0,1,.15.85,2.265,2.265,0,0,1-.15.846A1.507,1.507,0,0,1,1718.34,1001.07Zm-0.48-1.805a0.768,0.768,0,0,0-.17-0.306,0.587,0.587,0,0,0-.32-0.2,1.255,1.255,0,0,0-.18-0.031c-0.07,0-.13-0.007-0.18-0.007h-1.25v1.715h1.43a1.163,1.163,0,0,0,.18-0.04,0.543,0.543,0,0,0,.32-0.19,0.733,0.733,0,0,0,.17-0.307A1.292,1.292,0,0,0,1717.86,999.265Zm-5.49,2.885h-2.1l-0.35,1.17h-1.09l1.71-5.579h1.57l1.7,5.579h-1.08Zm-1.06-3.422-0.74,2.442h1.5Z" transform="translate(-1701.44 -992.875)"/>
</svg>
