<svg xmlns="http://www.w3.org/2000/svg" width="46.281" height="43.125" viewBox="0 0 46.281 43.125">
  <defs>
    <style>
      .cls-1 {
        fill: #586bd6;
        fill-rule: evenodd;
      }
    </style>
  </defs>
  <path id="icon_06" data-name="icon 06" class="cls-1" d="M69.373,638.951H53.335a0.908,0.908,0,0,1-.908-0.908V611.829h1.929v25.192H69.373A0.965,0.965,0,1,1,69.373,638.951ZM48.266,609.674h-2.8a0.965,0.965,0,1,1,0-1.93h2.8A0.965,0.965,0,1,1,48.266,609.674Zm2.346,37.56H41.76v-4.085a1.589,1.589,0,0,1,1.589-1.589h5.674a1.589,1.589,0,0,1,1.589,1.589v4.085Zm-2.025-3.56h-4.8v1.518h4.8v-1.518Zm38.338,3.56H78.073v-4.085a1.589,1.589,0,0,1,1.589-1.589h5.674a1.589,1.589,0,0,1,1.589,1.589v4.085Zm-2.025-3.56H80.1v1.518h4.8v-1.518ZM43.236,631.8h2.043v10.667H43.236V631.8Zm3.631,0H48.91v10.667H46.867V631.8Zm32.795,0H81.7v10.667H79.662V631.8Zm3.631,0h2.043v10.667H83.293V631.8Zm-8.851.795v-6.582H85.109A1.589,1.589,0,0,1,86.7,627.6v3.4a1.589,1.589,0,0,1-1.589,1.589H74.442Zm10.142-2.025v-2.532h-8.1v2.532h8.1ZM54.129,632.6v-6.582H43.463a1.589,1.589,0,0,0-1.589,1.589v3.4a1.589,1.589,0,0,0,1.589,1.589H54.129Zm-10.142-2.025v-2.532h8.1v2.532h-8.1Zm-2.681-17.493H52.427V605.7a1.589,1.589,0,0,0-1.589-1.589H42.9a1.589,1.589,0,0,0-1.589,1.589v7.376Zm2.025-6.851H50.4v4.808H43.331v-4.808Zm33.153,6.851H87.605V605.7a1.589,1.589,0,0,0-1.589-1.589H78.073a1.589,1.589,0,0,0-1.589,1.589v7.376Zm2.025-6.851H85.58v4.808H78.509v-4.808Zm-35.274,9.687h2.043v10.668H43.236V615.914Zm3.631,0H48.91v10.668H46.867V615.914Zm32.795,0H81.7v10.668H79.662V615.914Zm3.631,0h2.043v10.668H83.293V615.914Zm2.837-4.879v2.043H42.555v-2.043H86.13Zm-7.943-3.4v2.043H51.633v-2.043H78.187Zm-35.972,9.645a0.908,0.908,0,0,1-.908-0.908V609.22h2.043v6.014h9.419v2.042H42.214Zm44.483,0a0.908,0.908,0,0,0,.908-0.908V609.22H85.563v6.014H76.144v2.042H86.7ZM72.93,638.951h2.42a0.908,0.908,0,0,0,.908-0.908V611.829H74.328v25.192h-1.4A0.965,0.965,0,1,0,72.93,638.951Zm-2.686-3.632H58.328a0.908,0.908,0,0,1-.908-0.908V612.4h1.929V633.39h9.873V612.4h1.929v22.014A0.908,0.908,0,0,1,70.243,635.319Zm-0.567-19.631v2.042H59.009v-2.042H69.676Zm0,4.539v2.042H59.009v-2.042H69.676Zm0,4.539v2.042H59.009v-2.042H69.676Zm0,4.539v2.043H59.009V629.3H69.676Zm12.48-21.678a1.031,1.031,0,1,1-1.031,1.031A1.031,1.031,0,0,1,82.156,607.627Z" transform="translate(-41.313 -604.125)"/>
</svg>
