<svg xmlns="http://www.w3.org/2000/svg" width="45.469" height="42.219" viewBox="0 0 45.469 42.219">
  <defs>
    <style>
      .cls-1 {
        fill: #586bd6;
        fill-rule: evenodd;
      }
    </style>
  </defs>
  <path id="icon_07" data-name="icon 07" class="cls-1" d="M88.958,824.44V832.3a4.044,4.044,0,0,1-4.045,4.044H83.3v1.56a0.982,0.982,0,1,1-1.965,0v-1.56H50.939v1.56a0.982,0.982,0,1,1-1.965,0v-1.56H47.7a4.044,4.044,0,0,1-4.045-4.044V824.44A4.045,4.045,0,0,1,47.7,820.4H51l-7.414-17.39a0.982,0.982,0,1,1,1.807-.77l7.742,18.16H79.024l7.742-18.16a0.982,0.982,0,1,1,1.807.77L81.159,820.4h3.754A4.045,4.045,0,0,1,88.958,824.44Zm-41.366-2.034a1.964,1.964,0,0,0-1.965,1.964v8a1.965,1.965,0,0,0,1.965,1.965H85.025a1.965,1.965,0,0,0,1.964-1.965v-8a1.964,1.964,0,0,0-1.964-1.964H47.592Zm34.721,8.043a0.982,0.982,0,0,1-.982-0.982v-2.081a0.982,0.982,0,0,1,1.965,0v2.081A0.982,0.982,0,0,1,82.313,830.449Zm-5.431,0a0.982,0.982,0,0,1-.982-0.982v-2.081a0.982,0.982,0,0,1,1.965,0v2.081A0.982,0.982,0,0,1,76.882,830.449Zm-5.431,0a0.982,0.982,0,0,1-.982-0.982v-2.081a0.982,0.982,0,0,1,1.965,0v2.081A0.982,0.982,0,0,1,71.451,830.449ZM56.9,808.012a0.877,0.877,0,0,1-.7.249,0.982,0.982,0,0,1-.982-0.982,0.941,0.941,0,0,1,.24-0.714,14.558,14.558,0,0,1,10.565-4.524h0.116A14.558,14.558,0,0,1,76.7,806.565a0.94,0.94,0,0,1,.24.714,0.982,0.982,0,0,1-.982.982,0.877,0.877,0,0,1-.7-0.249,12.517,12.517,0,0,0-9.118-3.927l-0.058,0h0l-0.058,0A12.517,12.517,0,0,0,56.9,808.012Zm3.965,3.331a0.982,0.982,0,0,1-1.838-.482,0.939,0.939,0,0,1,.145-0.577A9.317,9.317,0,0,1,66.02,807.3l0.058,0,0.058,0a9.316,9.316,0,0,1,6.846,2.988,0.938,0.938,0,0,1,.145.577,0.982,0.982,0,0,1-1.838.482,7.365,7.365,0,0,0-5.153-2.1l-0.058,0h0l-0.058,0A7.365,7.365,0,0,0,60.866,811.343Zm5.211,3.482h0c-0.019,0-.038,0-0.058,0a1.816,1.816,0,0,0-1.508.8,0.789,0.789,0,0,1-.688.265,0.982,0.982,0,0,1-.982-0.982,0.972,0.972,0,0,1,.235-0.719,3.823,3.823,0,0,1,2.943-1.378h0.116a3.823,3.823,0,0,1,2.943,1.378,0.972,0.972,0,0,1,.235.719,0.982,0.982,0,0,1-.982.982,0.789,0.789,0,0,1-.688-0.265,1.816,1.816,0,0,0-1.508-.8c-0.02,0-.038,0-0.058,0h0Zm13.578-10.609a0.983,0.983,0,0,1-.866-0.518,18.041,18.041,0,0,0-12.654-5.161H66.02A18.04,18.04,0,0,0,53.365,803.7a0.982,0.982,0,1,1-1.39-1.294,19.932,19.932,0,0,1,14.044-5.763h0.116A19.932,19.932,0,0,1,80.179,802.4,0.981,0.981,0,0,1,79.656,804.216Z" transform="translate(-43.5 -796.656)"/>
</svg>
